%
M48
M72
T01C0.0160
T02C0.0236
T03C0.0400
%
T01
X9750Y3560
X10150Y3260
X10150Y3880
X9750Y4200
X11890Y3550
X12520Y3550
X12830Y3930
X12200Y3930
X13770Y3550
X14400Y3550
X14100Y3930
X14710Y4200
X16130Y4350
X16150Y3650
X15650Y3150
X15120Y2850
X20650Y5150
X23150Y5900
X16290Y6090
X15950Y5770
X16290Y5460
X14400Y6350
X13780Y6350
X12840Y6350
X12200Y6350
X11650Y6150
X11880Y6750
X12520Y6750
X14100Y6750
X14720Y6750
X15150Y7150
X15950Y6410
X11150Y8650
X10150Y7040
X9750Y6720
X10150Y6400
X9750Y6090
X10150Y5770
X4650Y6150
T02
X4650Y4640
X4650Y4140
X8950Y5330
X13650Y5150
X14150Y5150
X18150Y5650
X18650Y5650
X11650Y1650
X11150Y1650
T03
X2150Y1650
X3150Y1650
X4150Y1650
X5150Y1650
X6150Y1650
X7150Y1650
X8150Y1650
X9150Y1650
X10150Y1650
X16150Y1650
X17150Y1650
X18150Y1650
X19150Y1650
X20150Y1650
X21150Y1650
X22150Y1650
X23150Y1650
X24150Y1650
X25550Y2650
X25650Y3650
X25550Y4650
X25650Y5650
X25550Y6650
X25650Y7650
X24150Y8650
X23150Y8650
X22150Y8650
X21150Y8650
X20150Y8650
X19150Y8650
X18150Y8650
X17150Y8650
X16150Y8650
X10150Y8650
X9150Y8650
X8150Y8650
X7150Y8650
X6150Y8650
X5150Y8650
X4150Y8650
X3150Y8650
X2150Y8650
X2350Y6850
X3350Y6850
X3250Y5850
X2250Y5850
X2350Y4850
X3350Y4850
M30
