G75*
G70*
%OFA0B0*%
%FSLAX24Y24*%
%IPPOS*%
%LPD*%
%AMOC8*
5,1,8,0,0,1.08239X$1,22.5*
%
%ADD10R,0.0591X0.0197*%
%ADD11R,0.0197X0.0591*%
%ADD12R,0.0630X0.0512*%
%ADD13R,0.0512X0.0630*%
%ADD14R,0.0787X0.0630*%
%ADD15C,0.0740*%
%ADD16R,0.0500X0.0320*%
%ADD17R,0.0591X0.0394*%
%ADD18R,0.1181X0.0984*%
%ADD19C,0.0376*%
%ADD20C,0.0120*%
%ADD21C,0.0160*%
%ADD22C,0.0100*%
%ADD23C,0.0300*%
D10*
X010867Y003565D03*
X010867Y003880D03*
X010867Y004195D03*
X010867Y004510D03*
X010867Y004825D03*
X010867Y005140D03*
X010867Y005455D03*
X010867Y005770D03*
X010867Y006085D03*
X010867Y006400D03*
X010867Y006715D03*
X015433Y006715D03*
X015433Y006400D03*
X015433Y006085D03*
X015433Y005770D03*
X015433Y005455D03*
X015433Y005140D03*
X015433Y004825D03*
X015433Y004510D03*
X015433Y004195D03*
X015433Y003880D03*
X015433Y003565D03*
D11*
X014725Y002857D03*
X014410Y002857D03*
X014095Y002857D03*
X013780Y002857D03*
X013465Y002857D03*
X013150Y002857D03*
X012835Y002857D03*
X012520Y002857D03*
X012205Y002857D03*
X011890Y002857D03*
X011575Y002857D03*
X011575Y007423D03*
X011890Y007423D03*
X012205Y007423D03*
X012520Y007423D03*
X012835Y007423D03*
X013150Y007423D03*
X013465Y007423D03*
X013780Y007423D03*
X014095Y007423D03*
X014410Y007423D03*
X014725Y007423D03*
D12*
X017050Y006374D03*
X017050Y005626D03*
X017070Y004524D03*
X018150Y004524D03*
X018150Y003776D03*
X017070Y003776D03*
X024090Y003966D03*
X024090Y004714D03*
X008950Y006316D03*
X008950Y007064D03*
X005980Y006344D03*
X005980Y005596D03*
X005980Y004684D03*
X005980Y003936D03*
D13*
X004724Y003250D03*
X003976Y003250D03*
X003024Y003250D03*
X002276Y003250D03*
X012686Y001730D03*
X013434Y001730D03*
X021566Y005920D03*
X022314Y005920D03*
X013544Y008600D03*
X012796Y008600D03*
D14*
X019560Y004951D03*
X019560Y003849D03*
D15*
X019150Y001650D03*
X018150Y001650D03*
X017150Y001650D03*
X016150Y001650D03*
X020150Y001650D03*
X021150Y001650D03*
X022150Y001650D03*
X023150Y001650D03*
X024150Y001650D03*
X025550Y002650D03*
X025650Y003650D03*
X025550Y004650D03*
X025650Y005650D03*
X025550Y006650D03*
X025650Y007650D03*
X024150Y008650D03*
X023150Y008650D03*
X022150Y008650D03*
X021150Y008650D03*
X020150Y008650D03*
X019150Y008650D03*
X018150Y008650D03*
X017150Y008650D03*
X016150Y008650D03*
X010150Y008650D03*
X009150Y008650D03*
X008150Y008650D03*
X007150Y008650D03*
X006150Y008650D03*
X005150Y008650D03*
X004150Y008650D03*
X003150Y008650D03*
X002150Y008650D03*
X002350Y006850D03*
X003350Y006850D03*
X003250Y005850D03*
X002250Y005850D03*
X002350Y004850D03*
X003350Y004850D03*
X003150Y001650D03*
X004150Y001650D03*
X005150Y001650D03*
X006150Y001650D03*
X007150Y001650D03*
X008150Y001650D03*
X009150Y001650D03*
X010150Y001650D03*
X002150Y001650D03*
D16*
X021460Y006790D03*
X022340Y006790D03*
D17*
X022777Y004603D03*
X021143Y004603D03*
X021143Y003757D03*
X022777Y003757D03*
D18*
X007430Y003792D03*
X007430Y006548D03*
D19*
X008950Y005330D03*
X004650Y004640D03*
X004650Y004140D03*
X011150Y001650D03*
X011650Y001650D03*
X013650Y005150D03*
X014150Y005150D03*
X018150Y005650D03*
X018650Y005650D03*
D20*
X019380Y005131D02*
X019560Y004951D01*
X019359Y004750D01*
X019120Y004750D01*
X018840Y004470D01*
X018840Y004000D01*
X018616Y003776D01*
X018150Y003776D01*
X018385Y003776D01*
X018150Y004524D02*
X017070Y004524D01*
X016769Y004825D01*
X015433Y004825D01*
X015433Y004510D02*
X015970Y004510D01*
X016130Y004350D01*
X015433Y004195D02*
X014715Y004195D01*
X014710Y004200D01*
X014100Y003930D02*
X014095Y003925D01*
X014095Y002857D01*
X014410Y002857D02*
X014410Y003540D01*
X014400Y003550D01*
X013780Y003540D02*
X013770Y003550D01*
X013780Y003540D02*
X013780Y002857D01*
X013150Y002857D02*
X013150Y002650D01*
X013150Y002270D01*
X013270Y002150D01*
X013270Y001894D01*
X013434Y001730D01*
X013150Y002650D02*
X013140Y002660D01*
X013150Y002857D02*
X013150Y003650D01*
X013210Y003710D01*
X013210Y003970D01*
X012835Y003925D02*
X012830Y003930D01*
X012835Y003925D02*
X012835Y002857D01*
X012520Y002857D02*
X012520Y003550D01*
X012520Y003550D01*
X011890Y003550D02*
X011890Y003550D01*
X011890Y002857D01*
X012205Y002857D02*
X012205Y003925D01*
X012200Y003930D01*
X010867Y003880D02*
X010150Y003880D01*
X010150Y003880D01*
X009755Y003565D02*
X009750Y003560D01*
X009755Y003565D02*
X010867Y003565D01*
X011040Y003260D02*
X010150Y003260D01*
X011040Y003260D02*
X011443Y002857D01*
X011575Y002857D01*
X014725Y002857D02*
X015113Y002857D01*
X015120Y002850D01*
X015433Y003367D02*
X015650Y003150D01*
X015433Y003367D02*
X015433Y003565D01*
X015433Y003880D02*
X015920Y003880D01*
X016150Y003650D01*
X020650Y005096D02*
X020650Y005150D01*
X021420Y005920D01*
X021566Y005920D01*
X021566Y006684D01*
X021460Y006790D01*
X022314Y006764D02*
X022314Y005920D01*
X022314Y006764D02*
X022340Y006790D01*
X022350Y006800D01*
X022350Y007250D01*
X017050Y005626D02*
X016456Y005626D01*
X016290Y005460D01*
X016285Y005455D01*
X015433Y005455D01*
X015433Y005770D02*
X015950Y005770D01*
X015950Y005770D01*
X016285Y006085D02*
X015433Y006085D01*
X015433Y006400D02*
X015940Y006400D01*
X015950Y006410D01*
X016285Y006085D02*
X016290Y006090D01*
X015433Y006715D02*
X015433Y006867D01*
X015150Y007150D01*
X014725Y007423D02*
X014725Y006755D01*
X014720Y006750D01*
X014100Y006750D02*
X014095Y006755D01*
X014095Y007423D01*
X014410Y007423D02*
X014410Y006360D01*
X014400Y006350D01*
X013780Y006350D02*
X013780Y006350D01*
X013780Y007423D01*
X013465Y007423D02*
X013465Y008349D01*
X013544Y008600D01*
X013465Y007423D02*
X013460Y007419D01*
X013460Y006790D01*
X013320Y006650D01*
X012840Y006350D02*
X012835Y006355D01*
X012835Y007423D01*
X012520Y007423D02*
X012520Y006750D01*
X012520Y006750D01*
X011890Y006760D02*
X011880Y006750D01*
X011890Y006760D02*
X011890Y007423D01*
X012200Y007418D02*
X012200Y006350D01*
X010867Y006400D02*
X010150Y006400D01*
X010150Y006400D01*
X009755Y006085D02*
X009750Y006090D01*
X009755Y006085D02*
X010867Y006085D01*
X010866Y005770D02*
X010150Y005770D01*
X010866Y005770D02*
X010867Y005770D01*
X010872Y005460D02*
X011470Y005460D01*
X010872Y005460D02*
X010867Y005455D01*
X009955Y005455D01*
X009950Y005450D01*
X008950Y005330D02*
X008950Y006316D01*
X009750Y006720D02*
X010861Y006720D01*
X010867Y006715D01*
X010980Y007040D02*
X010150Y007040D01*
X010980Y007040D02*
X011360Y007420D01*
X011572Y007420D01*
X011575Y007423D01*
X012200Y007418D02*
X012205Y007423D01*
X007430Y006548D02*
X007226Y006344D01*
X005980Y006344D01*
X004650Y006150D02*
X004150Y005650D01*
X004150Y004650D01*
X003650Y004150D01*
X003050Y004150D01*
X002350Y004850D01*
X001750Y004450D02*
X002276Y003924D01*
X002276Y003250D01*
X003024Y003250D02*
X003976Y003250D01*
X005980Y003936D02*
X007286Y003936D01*
X007430Y003792D01*
X007650Y004012D01*
X007650Y004150D01*
X009150Y004150D01*
X009510Y004510D01*
X010867Y004510D01*
X010867Y004195D02*
X009755Y004195D01*
X009750Y004200D01*
X009150Y004650D02*
X008150Y004650D01*
X007430Y005370D01*
X007430Y006548D01*
X005150Y008650D02*
X004150Y007650D01*
X004150Y006650D01*
X003350Y005850D01*
X003250Y005850D01*
X002250Y005850D02*
X001750Y005350D01*
X001750Y004450D01*
X002250Y005850D02*
X001750Y006350D01*
X001750Y007250D01*
X003150Y008650D01*
X004150Y008650D02*
X002350Y006850D01*
X009150Y004650D02*
X009325Y004825D01*
X010867Y004825D01*
X020650Y005096D02*
X021143Y004603D01*
X022777Y004603D01*
X023889Y004603D01*
X023949Y004663D01*
X024090Y004714D01*
X024090Y003966D02*
X024150Y003906D01*
X024150Y003650D01*
X025150Y002650D01*
X025550Y002650D01*
D21*
X019589Y004980D02*
X019560Y004951D01*
X019580Y004971D01*
X019580Y005880D01*
X020950Y007250D01*
X022350Y007250D01*
X022850Y007250D01*
X024450Y005650D01*
X025650Y005650D01*
X018170Y003756D02*
X018150Y003776D01*
X018150Y003320D01*
X017680Y002850D01*
X016360Y002850D01*
X015240Y001730D01*
X013434Y001730D01*
X013210Y003970D02*
X013210Y005220D01*
X012970Y005460D01*
X013210Y005700D01*
X013210Y006540D01*
X013320Y006650D01*
X013210Y005700D02*
X013210Y005450D01*
X013200Y005460D01*
X012970Y005460D01*
X011470Y005460D01*
X009950Y005450D02*
X009450Y005450D01*
X009330Y005330D01*
X008950Y005330D01*
X013210Y005220D02*
X013210Y005450D01*
D22*
X001483Y001301D02*
X001401Y001383D01*
X001356Y001491D01*
X001350Y001550D01*
X001350Y008750D01*
X001356Y008809D01*
X001401Y008917D01*
X001483Y008999D01*
X001591Y009044D01*
X001650Y009050D01*
X001815Y009050D01*
X001709Y008945D01*
X001630Y008753D01*
X001630Y008547D01*
X001709Y008355D01*
X001855Y008209D01*
X002047Y008130D01*
X002253Y008130D01*
X002389Y008186D01*
X001663Y007460D01*
X001540Y007337D01*
X001540Y006263D01*
X001765Y006038D01*
X001730Y005953D01*
X001730Y005747D01*
X001765Y005662D01*
X001663Y005560D01*
X001540Y005437D01*
X001540Y004363D01*
X002066Y003837D01*
X002066Y003715D01*
X001958Y003715D01*
X001870Y003627D01*
X001870Y002873D01*
X001958Y002785D01*
X002594Y002785D01*
X002650Y002841D01*
X002706Y002785D01*
X003342Y002785D01*
X003430Y002873D01*
X003430Y003040D01*
X003570Y003040D01*
X003570Y002873D01*
X003658Y002785D01*
X004268Y002785D01*
X004274Y002776D01*
X004309Y002741D01*
X004350Y002713D01*
X004395Y002695D01*
X004443Y002685D01*
X004674Y002685D01*
X004674Y003200D01*
X004774Y003200D01*
X004774Y002685D01*
X005005Y002685D01*
X005053Y002695D01*
X005098Y002713D01*
X005139Y002741D01*
X005174Y002776D01*
X005201Y002817D01*
X005220Y002862D01*
X005230Y002910D01*
X005230Y003200D01*
X004774Y003200D01*
X004774Y003300D01*
X004674Y003300D01*
X004674Y003815D01*
X004443Y003815D01*
X004395Y003805D01*
X004350Y003787D01*
X004309Y003759D01*
X004274Y003724D01*
X004268Y003715D01*
X003658Y003715D01*
X003570Y003627D01*
X003570Y003460D01*
X003430Y003460D01*
X003430Y003627D01*
X003342Y003715D01*
X002706Y003715D01*
X002650Y003659D01*
X002594Y003715D01*
X002486Y003715D01*
X002486Y004011D01*
X002363Y004134D01*
X002111Y004386D01*
X002247Y004330D01*
X002453Y004330D01*
X002538Y004365D01*
X002840Y004063D01*
X002963Y003940D01*
X003737Y003940D01*
X004237Y004440D01*
X004360Y004563D01*
X004360Y005563D01*
X004647Y005850D01*
X004710Y005850D01*
X004820Y005896D01*
X004904Y005980D01*
X004950Y006090D01*
X004950Y006210D01*
X004904Y006320D01*
X004820Y006404D01*
X004710Y006450D01*
X004590Y006450D01*
X004480Y006404D01*
X004396Y006320D01*
X004350Y006210D01*
X004350Y006147D01*
X003940Y005737D01*
X003940Y005041D01*
X003925Y005088D01*
X003880Y005175D01*
X003823Y005254D01*
X003754Y005323D01*
X003675Y005380D01*
X003588Y005425D01*
X003567Y005431D01*
X003691Y005555D01*
X003770Y005747D01*
X003770Y005953D01*
X003764Y005967D01*
X004360Y006563D01*
X004360Y007563D01*
X004962Y008165D01*
X005047Y008130D01*
X005253Y008130D01*
X005445Y008209D01*
X005591Y008355D01*
X005650Y008498D01*
X005709Y008355D01*
X005855Y008209D01*
X006047Y008130D01*
X006253Y008130D01*
X006445Y008209D01*
X006591Y008355D01*
X006650Y008498D01*
X006709Y008355D01*
X006855Y008209D01*
X007047Y008130D01*
X007253Y008130D01*
X007445Y008209D01*
X007591Y008355D01*
X007650Y008498D01*
X007709Y008355D01*
X007855Y008209D01*
X008047Y008130D01*
X008253Y008130D01*
X008445Y008209D01*
X008591Y008355D01*
X008650Y008498D01*
X008709Y008355D01*
X008855Y008209D01*
X009047Y008130D01*
X009253Y008130D01*
X009445Y008209D01*
X009591Y008355D01*
X009650Y008498D01*
X009709Y008355D01*
X009855Y008209D01*
X010047Y008130D01*
X010253Y008130D01*
X010445Y008209D01*
X010591Y008355D01*
X010670Y008547D01*
X010670Y008753D01*
X010591Y008945D01*
X010485Y009050D01*
X012330Y009050D01*
X012319Y009033D01*
X012300Y008988D01*
X012290Y008940D01*
X012290Y008650D01*
X012746Y008650D01*
X012746Y008550D01*
X012846Y008550D01*
X012846Y008035D01*
X013077Y008035D01*
X013125Y008045D01*
X013170Y008063D01*
X013211Y008091D01*
X013246Y008126D01*
X013252Y008135D01*
X013255Y008135D01*
X013255Y007969D01*
X013150Y007969D01*
X013027Y007969D01*
X012979Y007959D01*
X012933Y007940D01*
X012892Y007913D01*
X012857Y007878D01*
X012851Y007869D01*
X011415Y007869D01*
X011327Y007781D01*
X011327Y007630D01*
X011273Y007630D01*
X011150Y007507D01*
X010893Y007250D01*
X010364Y007250D01*
X010320Y007294D01*
X010210Y007340D01*
X010090Y007340D01*
X009980Y007294D01*
X009896Y007210D01*
X009850Y007100D01*
X009850Y007003D01*
X009810Y007020D01*
X009690Y007020D01*
X009580Y006974D01*
X009515Y006909D01*
X009515Y007014D01*
X009000Y007014D01*
X009000Y007114D01*
X009515Y007114D01*
X009515Y007345D01*
X009505Y007393D01*
X009487Y007438D01*
X009459Y007479D01*
X009424Y007514D01*
X009383Y007541D01*
X009338Y007560D01*
X009290Y007570D01*
X009000Y007570D01*
X009000Y007114D01*
X008900Y007114D01*
X008900Y007014D01*
X008385Y007014D01*
X008385Y006783D01*
X008395Y006735D01*
X008413Y006690D01*
X008441Y006649D01*
X008476Y006614D01*
X008485Y006608D01*
X008485Y005998D01*
X008573Y005910D01*
X008740Y005910D01*
X008740Y005598D01*
X008663Y005522D01*
X008612Y005397D01*
X008612Y005263D01*
X008663Y005138D01*
X008758Y005043D01*
X008883Y004992D01*
X009017Y004992D01*
X009142Y005043D01*
X009198Y005100D01*
X009425Y005100D01*
X009545Y005220D01*
X010045Y005220D01*
X010070Y005245D01*
X010321Y005245D01*
X010321Y005140D01*
X010321Y005035D01*
X009238Y005035D01*
X009063Y004860D01*
X008237Y004860D01*
X007640Y005457D01*
X007640Y005906D01*
X008083Y005906D01*
X008171Y005994D01*
X008171Y007102D01*
X008083Y007190D01*
X006777Y007190D01*
X006689Y007102D01*
X006689Y006554D01*
X006445Y006554D01*
X006445Y006662D01*
X006357Y006750D01*
X005603Y006750D01*
X005515Y006662D01*
X005515Y006052D01*
X005506Y006046D01*
X005471Y006011D01*
X005443Y005970D01*
X005425Y005925D01*
X005415Y005877D01*
X005415Y005646D01*
X005930Y005646D01*
X005930Y005546D01*
X005415Y005546D01*
X005415Y005315D01*
X005425Y005267D01*
X005443Y005222D01*
X005471Y005181D01*
X005506Y005146D01*
X005514Y005140D01*
X005506Y005134D01*
X005471Y005099D01*
X005443Y005058D01*
X005425Y005013D01*
X005415Y004965D01*
X005415Y004734D01*
X005930Y004734D01*
X005930Y004634D01*
X005415Y004634D01*
X005415Y004403D01*
X005425Y004355D01*
X005443Y004310D01*
X005471Y004269D01*
X005506Y004234D01*
X005515Y004228D01*
X005515Y003618D01*
X005603Y003530D01*
X006357Y003530D01*
X006445Y003618D01*
X006445Y003726D01*
X006689Y003726D01*
X006689Y003238D01*
X006777Y003150D01*
X008083Y003150D01*
X008171Y003238D01*
X008171Y003940D01*
X009237Y003940D01*
X009360Y004063D01*
X009450Y004153D01*
X009450Y004140D01*
X009496Y004030D01*
X009580Y003946D01*
X009690Y003900D01*
X009810Y003900D01*
X009850Y003917D01*
X009850Y003843D01*
X009810Y003860D01*
X009690Y003860D01*
X009580Y003814D01*
X009496Y003730D01*
X009450Y003620D01*
X009450Y003500D01*
X009496Y003390D01*
X009580Y003306D01*
X009690Y003260D01*
X009810Y003260D01*
X009850Y003277D01*
X009850Y003200D01*
X009896Y003090D01*
X009980Y003006D01*
X010090Y002960D01*
X010210Y002960D01*
X010320Y003006D01*
X010364Y003050D01*
X010953Y003050D01*
X011327Y002676D01*
X011327Y002499D01*
X011415Y002411D01*
X012940Y002411D01*
X012940Y002295D01*
X012736Y002295D01*
X012736Y001780D01*
X012636Y001780D01*
X012636Y002295D01*
X012405Y002295D01*
X012357Y002285D01*
X012312Y002267D01*
X012271Y002239D01*
X012236Y002204D01*
X012209Y002163D01*
X012190Y002118D01*
X012180Y002070D01*
X012180Y001780D01*
X012636Y001780D01*
X012636Y001680D01*
X012180Y001680D01*
X012180Y001390D01*
X012190Y001342D01*
X012209Y001297D01*
X012236Y001256D01*
X012242Y001250D01*
X010485Y001250D01*
X010591Y001355D01*
X010670Y001547D01*
X010670Y001753D01*
X010591Y001945D01*
X010445Y002091D01*
X010253Y002170D01*
X010047Y002170D01*
X009855Y002091D01*
X009709Y001945D01*
X009650Y001802D01*
X009591Y001945D01*
X009445Y002091D01*
X009253Y002170D01*
X009047Y002170D01*
X008855Y002091D01*
X008709Y001945D01*
X008650Y001802D01*
X008591Y001945D01*
X008445Y002091D01*
X008253Y002170D01*
X008047Y002170D01*
X007855Y002091D01*
X007709Y001945D01*
X007650Y001802D01*
X007591Y001945D01*
X007445Y002091D01*
X007253Y002170D01*
X007047Y002170D01*
X006855Y002091D01*
X006709Y001945D01*
X006650Y001802D01*
X006591Y001945D01*
X006445Y002091D01*
X006253Y002170D01*
X006047Y002170D01*
X005855Y002091D01*
X005709Y001945D01*
X005650Y001802D01*
X005591Y001945D01*
X005445Y002091D01*
X005253Y002170D01*
X005047Y002170D01*
X004855Y002091D01*
X004709Y001945D01*
X004650Y001802D01*
X004591Y001945D01*
X004445Y002091D01*
X004253Y002170D01*
X004047Y002170D01*
X003855Y002091D01*
X003709Y001945D01*
X003650Y001802D01*
X003591Y001945D01*
X003445Y002091D01*
X003253Y002170D01*
X003047Y002170D01*
X002855Y002091D01*
X002709Y001945D01*
X002650Y001802D01*
X002591Y001945D01*
X002445Y002091D01*
X002253Y002170D01*
X002047Y002170D01*
X001855Y002091D01*
X001709Y001945D01*
X001630Y001753D01*
X001630Y001547D01*
X001709Y001355D01*
X001815Y001250D01*
X001650Y001250D01*
X001591Y001256D01*
X001483Y001301D01*
X001437Y001347D02*
X001718Y001347D01*
X001672Y001446D02*
X001375Y001446D01*
X001351Y001544D02*
X001631Y001544D01*
X001630Y001643D02*
X001350Y001643D01*
X001350Y001741D02*
X001630Y001741D01*
X001666Y001840D02*
X001350Y001840D01*
X001350Y001938D02*
X001706Y001938D01*
X001801Y002037D02*
X001350Y002037D01*
X001350Y002135D02*
X001962Y002135D01*
X002338Y002135D02*
X002962Y002135D01*
X002801Y002037D02*
X002499Y002037D01*
X002594Y001938D02*
X002706Y001938D01*
X002666Y001840D02*
X002634Y001840D01*
X003338Y002135D02*
X003962Y002135D01*
X003801Y002037D02*
X003499Y002037D01*
X003594Y001938D02*
X003706Y001938D01*
X003666Y001840D02*
X003634Y001840D01*
X004338Y002135D02*
X004962Y002135D01*
X004801Y002037D02*
X004499Y002037D01*
X004594Y001938D02*
X004706Y001938D01*
X004666Y001840D02*
X004634Y001840D01*
X005338Y002135D02*
X005962Y002135D01*
X005801Y002037D02*
X005499Y002037D01*
X005594Y001938D02*
X005706Y001938D01*
X005666Y001840D02*
X005634Y001840D01*
X006338Y002135D02*
X006962Y002135D01*
X006801Y002037D02*
X006499Y002037D01*
X006594Y001938D02*
X006706Y001938D01*
X006666Y001840D02*
X006634Y001840D01*
X007338Y002135D02*
X007962Y002135D01*
X007801Y002037D02*
X007499Y002037D01*
X007594Y001938D02*
X007706Y001938D01*
X007666Y001840D02*
X007634Y001840D01*
X008338Y002135D02*
X008962Y002135D01*
X008801Y002037D02*
X008499Y002037D01*
X008594Y001938D02*
X008706Y001938D01*
X008666Y001840D02*
X008634Y001840D01*
X009338Y002135D02*
X009962Y002135D01*
X009801Y002037D02*
X009499Y002037D01*
X009594Y001938D02*
X009706Y001938D01*
X009666Y001840D02*
X009634Y001840D01*
X010338Y002135D02*
X012197Y002135D01*
X012180Y002037D02*
X010499Y002037D01*
X010594Y001938D02*
X012180Y001938D01*
X012180Y001840D02*
X010634Y001840D01*
X010670Y001741D02*
X012636Y001741D01*
X012636Y001840D02*
X012736Y001840D01*
X012736Y001938D02*
X012636Y001938D01*
X012636Y002037D02*
X012736Y002037D01*
X012736Y002135D02*
X012636Y002135D01*
X012636Y002234D02*
X012736Y002234D01*
X012940Y002332D02*
X001350Y002332D01*
X001350Y002234D02*
X012265Y002234D01*
X011395Y002431D02*
X001350Y002431D01*
X001350Y002529D02*
X011327Y002529D01*
X011327Y002628D02*
X001350Y002628D01*
X001350Y002726D02*
X004331Y002726D01*
X004674Y002726D02*
X004774Y002726D01*
X004774Y002825D02*
X004674Y002825D01*
X004674Y002923D02*
X004774Y002923D01*
X004774Y003022D02*
X004674Y003022D01*
X004674Y003120D02*
X004774Y003120D01*
X004774Y003219D02*
X006709Y003219D01*
X006689Y003317D02*
X005230Y003317D01*
X005230Y003300D02*
X005230Y003590D01*
X005220Y003638D01*
X005201Y003683D01*
X005174Y003724D01*
X005139Y003759D01*
X005098Y003787D01*
X005053Y003805D01*
X005005Y003815D01*
X004774Y003815D01*
X004774Y003300D01*
X005230Y003300D01*
X005230Y003416D02*
X006689Y003416D01*
X006689Y003514D02*
X005230Y003514D01*
X005225Y003613D02*
X005520Y003613D01*
X005515Y003711D02*
X005183Y003711D01*
X005032Y003810D02*
X005515Y003810D01*
X005515Y003908D02*
X002486Y003908D01*
X002486Y003810D02*
X004416Y003810D01*
X004674Y003810D02*
X004774Y003810D01*
X004774Y003711D02*
X004674Y003711D01*
X004674Y003613D02*
X004774Y003613D01*
X004774Y003514D02*
X004674Y003514D01*
X004674Y003416D02*
X004774Y003416D01*
X004774Y003317D02*
X004674Y003317D01*
X005230Y003120D02*
X009883Y003120D01*
X009850Y003219D02*
X008151Y003219D01*
X008171Y003317D02*
X009569Y003317D01*
X009485Y003416D02*
X008171Y003416D01*
X008171Y003514D02*
X009450Y003514D01*
X009450Y003613D02*
X008171Y003613D01*
X008171Y003711D02*
X009488Y003711D01*
X009575Y003810D02*
X008171Y003810D01*
X008171Y003908D02*
X009671Y003908D01*
X009829Y003908D02*
X009850Y003908D01*
X009519Y004007D02*
X009303Y004007D01*
X009402Y004105D02*
X009465Y004105D01*
X009143Y004440D02*
X009063Y004360D01*
X008157Y004360D01*
X008083Y004434D01*
X006777Y004434D01*
X006689Y004346D01*
X006689Y004146D01*
X006445Y004146D01*
X006445Y004228D01*
X006454Y004234D01*
X006489Y004269D01*
X006517Y004310D01*
X006535Y004355D01*
X006545Y004403D01*
X006545Y004634D01*
X006030Y004634D01*
X006030Y004734D01*
X006545Y004734D01*
X006545Y004965D01*
X006535Y005013D01*
X006517Y005058D01*
X006489Y005099D01*
X006454Y005134D01*
X006446Y005140D01*
X006454Y005146D01*
X006489Y005181D01*
X006517Y005222D01*
X006535Y005267D01*
X006545Y005315D01*
X006545Y005546D01*
X006030Y005546D01*
X006030Y005646D01*
X006545Y005646D01*
X006545Y005877D01*
X006535Y005925D01*
X006517Y005970D01*
X006489Y006011D01*
X006454Y006046D01*
X006445Y006052D01*
X006445Y006134D01*
X006689Y006134D01*
X006689Y005994D01*
X006777Y005906D01*
X007220Y005906D01*
X007220Y005283D01*
X007343Y005160D01*
X008063Y004440D01*
X009143Y004440D01*
X009104Y004401D02*
X008116Y004401D01*
X008004Y004499D02*
X006545Y004499D01*
X006544Y004401D02*
X006744Y004401D01*
X006689Y004302D02*
X006511Y004302D01*
X006445Y004204D02*
X006689Y004204D01*
X006545Y004598D02*
X007906Y004598D01*
X007807Y004696D02*
X006030Y004696D01*
X006030Y004734D02*
X005930Y004734D01*
X005930Y005190D01*
X005930Y005546D01*
X006030Y005546D01*
X006030Y004734D01*
X006030Y004795D02*
X005930Y004795D01*
X005930Y004893D02*
X006030Y004893D01*
X006030Y004992D02*
X005930Y004992D01*
X005930Y005090D02*
X006030Y005090D01*
X006030Y005189D02*
X005930Y005189D01*
X005930Y005287D02*
X006030Y005287D01*
X006030Y005386D02*
X005930Y005386D01*
X005930Y005484D02*
X006030Y005484D01*
X006030Y005583D02*
X007220Y005583D01*
X007220Y005681D02*
X006545Y005681D01*
X006545Y005780D02*
X007220Y005780D01*
X007220Y005878D02*
X006545Y005878D01*
X006512Y005977D02*
X006707Y005977D01*
X006689Y006075D02*
X006445Y006075D01*
X005515Y006075D02*
X004944Y006075D01*
X004950Y006174D02*
X005515Y006174D01*
X005515Y006272D02*
X004924Y006272D01*
X004854Y006371D02*
X005515Y006371D01*
X005515Y006469D02*
X004266Y006469D01*
X004360Y006568D02*
X005515Y006568D01*
X005519Y006666D02*
X004360Y006666D01*
X004360Y006765D02*
X006689Y006765D01*
X006689Y006863D02*
X004360Y006863D01*
X004360Y006962D02*
X006689Y006962D01*
X006689Y007060D02*
X004360Y007060D01*
X004360Y007159D02*
X006746Y007159D01*
X006689Y006666D02*
X006441Y006666D01*
X006445Y006568D02*
X006689Y006568D01*
X005448Y005977D02*
X004901Y005977D01*
X004777Y005878D02*
X005415Y005878D01*
X005415Y005780D02*
X004576Y005780D01*
X004478Y005681D02*
X005415Y005681D01*
X005930Y005583D02*
X004379Y005583D01*
X004360Y005484D02*
X005415Y005484D01*
X005415Y005386D02*
X004360Y005386D01*
X004360Y005287D02*
X005421Y005287D01*
X005466Y005189D02*
X004360Y005189D01*
X004360Y005090D02*
X005465Y005090D01*
X005420Y004992D02*
X004360Y004992D01*
X004360Y004893D02*
X005415Y004893D01*
X005415Y004795D02*
X004360Y004795D01*
X004360Y004696D02*
X005930Y004696D01*
X005415Y004598D02*
X004360Y004598D01*
X004296Y004499D02*
X005415Y004499D01*
X005416Y004401D02*
X004197Y004401D01*
X004099Y004302D02*
X005449Y004302D01*
X005515Y004204D02*
X004000Y004204D01*
X003902Y004105D02*
X005515Y004105D01*
X005515Y004007D02*
X003803Y004007D01*
X003654Y003711D02*
X003346Y003711D01*
X003430Y003613D02*
X003570Y003613D01*
X003570Y003514D02*
X003430Y003514D01*
X002702Y003711D02*
X002598Y003711D01*
X002486Y004007D02*
X002897Y004007D01*
X002798Y004105D02*
X002392Y004105D01*
X002293Y004204D02*
X002700Y004204D01*
X002601Y004302D02*
X002195Y004302D01*
X001700Y004204D02*
X001350Y004204D01*
X001350Y004302D02*
X001601Y004302D01*
X001540Y004401D02*
X001350Y004401D01*
X001350Y004499D02*
X001540Y004499D01*
X001540Y004598D02*
X001350Y004598D01*
X001350Y004696D02*
X001540Y004696D01*
X001540Y004795D02*
X001350Y004795D01*
X001350Y004893D02*
X001540Y004893D01*
X001540Y004992D02*
X001350Y004992D01*
X001350Y005090D02*
X001540Y005090D01*
X001540Y005189D02*
X001350Y005189D01*
X001350Y005287D02*
X001540Y005287D01*
X001540Y005386D02*
X001350Y005386D01*
X001350Y005484D02*
X001587Y005484D01*
X001663Y005560D02*
X001663Y005560D01*
X001686Y005583D02*
X001350Y005583D01*
X001350Y005681D02*
X001757Y005681D01*
X001730Y005780D02*
X001350Y005780D01*
X001350Y005878D02*
X001730Y005878D01*
X001740Y005977D02*
X001350Y005977D01*
X001350Y006075D02*
X001728Y006075D01*
X001630Y006174D02*
X001350Y006174D01*
X001350Y006272D02*
X001540Y006272D01*
X001540Y006371D02*
X001350Y006371D01*
X001350Y006469D02*
X001540Y006469D01*
X001540Y006568D02*
X001350Y006568D01*
X001350Y006666D02*
X001540Y006666D01*
X001540Y006765D02*
X001350Y006765D01*
X001350Y006863D02*
X001540Y006863D01*
X001540Y006962D02*
X001350Y006962D01*
X001350Y007060D02*
X001540Y007060D01*
X001540Y007159D02*
X001350Y007159D01*
X001350Y007257D02*
X001540Y007257D01*
X001559Y007356D02*
X001350Y007356D01*
X001350Y007454D02*
X001657Y007454D01*
X001756Y007553D02*
X001350Y007553D01*
X001350Y007651D02*
X001854Y007651D01*
X001953Y007750D02*
X001350Y007750D01*
X001350Y007848D02*
X002051Y007848D01*
X002150Y007947D02*
X001350Y007947D01*
X001350Y008045D02*
X002248Y008045D01*
X002286Y008144D02*
X002347Y008144D01*
X002014Y008144D02*
X001350Y008144D01*
X001350Y008242D02*
X001823Y008242D01*
X001724Y008341D02*
X001350Y008341D01*
X001350Y008439D02*
X001675Y008439D01*
X001634Y008538D02*
X001350Y008538D01*
X001350Y008636D02*
X001630Y008636D01*
X001630Y008735D02*
X001350Y008735D01*
X001366Y008833D02*
X001663Y008833D01*
X001704Y008932D02*
X001415Y008932D01*
X001557Y009030D02*
X001795Y009030D01*
X004744Y007947D02*
X012948Y007947D01*
X012846Y008045D02*
X012746Y008045D01*
X012746Y008035D02*
X012746Y008550D01*
X012290Y008550D01*
X012290Y008260D01*
X012300Y008212D01*
X012319Y008167D01*
X012346Y008126D01*
X012381Y008091D01*
X012422Y008063D01*
X012467Y008045D01*
X012515Y008035D01*
X012746Y008035D01*
X012746Y008144D02*
X012846Y008144D01*
X012846Y008242D02*
X012746Y008242D01*
X012746Y008341D02*
X012846Y008341D01*
X012846Y008439D02*
X012746Y008439D01*
X012746Y008538D02*
X012846Y008538D01*
X012746Y008636D02*
X010670Y008636D01*
X010670Y008735D02*
X012290Y008735D01*
X012290Y008833D02*
X010637Y008833D01*
X010596Y008932D02*
X012290Y008932D01*
X012317Y009030D02*
X010505Y009030D01*
X010666Y008538D02*
X012290Y008538D01*
X012290Y008439D02*
X010625Y008439D01*
X010576Y008341D02*
X012290Y008341D01*
X012294Y008242D02*
X010477Y008242D01*
X010286Y008144D02*
X012334Y008144D01*
X012466Y008045D02*
X004842Y008045D01*
X004941Y008144D02*
X005014Y008144D01*
X005286Y008144D02*
X006014Y008144D01*
X005823Y008242D02*
X005477Y008242D01*
X005576Y008341D02*
X005724Y008341D01*
X005675Y008439D02*
X005625Y008439D01*
X006286Y008144D02*
X007014Y008144D01*
X006823Y008242D02*
X006477Y008242D01*
X006576Y008341D02*
X006724Y008341D01*
X006675Y008439D02*
X006625Y008439D01*
X007286Y008144D02*
X008014Y008144D01*
X007823Y008242D02*
X007477Y008242D01*
X007576Y008341D02*
X007724Y008341D01*
X007675Y008439D02*
X007625Y008439D01*
X008286Y008144D02*
X009014Y008144D01*
X008823Y008242D02*
X008477Y008242D01*
X008576Y008341D02*
X008724Y008341D01*
X008675Y008439D02*
X008625Y008439D01*
X009286Y008144D02*
X010014Y008144D01*
X009823Y008242D02*
X009477Y008242D01*
X009576Y008341D02*
X009724Y008341D01*
X009675Y008439D02*
X009625Y008439D01*
X011327Y007750D02*
X004546Y007750D01*
X004448Y007651D02*
X011327Y007651D01*
X011196Y007553D02*
X009357Y007553D01*
X009476Y007454D02*
X011097Y007454D01*
X010999Y007356D02*
X009513Y007356D01*
X009515Y007257D02*
X009943Y007257D01*
X009874Y007159D02*
X009515Y007159D01*
X009850Y007060D02*
X009000Y007060D01*
X009000Y007159D02*
X008900Y007159D01*
X008900Y007114D02*
X008900Y007570D01*
X008610Y007570D01*
X008562Y007560D01*
X008517Y007541D01*
X008476Y007514D01*
X008441Y007479D01*
X008413Y007438D01*
X008395Y007393D01*
X008385Y007345D01*
X008385Y007114D01*
X008900Y007114D01*
X008900Y007060D02*
X008171Y007060D01*
X008171Y006962D02*
X008385Y006962D01*
X008385Y006863D02*
X008171Y006863D01*
X008171Y006765D02*
X008389Y006765D01*
X008429Y006666D02*
X008171Y006666D01*
X008171Y006568D02*
X008485Y006568D01*
X008485Y006469D02*
X008171Y006469D01*
X008171Y006371D02*
X008485Y006371D01*
X008485Y006272D02*
X008171Y006272D01*
X008171Y006174D02*
X008485Y006174D01*
X008485Y006075D02*
X008171Y006075D01*
X008153Y005977D02*
X008506Y005977D01*
X008740Y005878D02*
X007640Y005878D01*
X007640Y005780D02*
X008740Y005780D01*
X008740Y005681D02*
X007640Y005681D01*
X007640Y005583D02*
X008724Y005583D01*
X008648Y005484D02*
X007640Y005484D01*
X007711Y005386D02*
X008612Y005386D01*
X008612Y005287D02*
X007810Y005287D01*
X007908Y005189D02*
X008643Y005189D01*
X008712Y005090D02*
X008007Y005090D01*
X008105Y004992D02*
X009195Y004992D01*
X009188Y005090D02*
X010321Y005090D01*
X010321Y005140D02*
X010867Y005140D01*
X011412Y005140D01*
X011412Y005230D01*
X012875Y005230D01*
X012980Y005125D01*
X012980Y004193D01*
X012890Y004230D01*
X012770Y004230D01*
X012660Y004184D01*
X012576Y004100D01*
X012530Y003990D01*
X012530Y003870D01*
X012538Y003850D01*
X012492Y003850D01*
X012500Y003870D01*
X012500Y003990D01*
X012454Y004100D01*
X012370Y004184D01*
X012260Y004230D01*
X012140Y004230D01*
X012030Y004184D01*
X011946Y004100D01*
X011900Y003990D01*
X011900Y003870D01*
X011908Y003850D01*
X011830Y003850D01*
X011720Y003804D01*
X011636Y003720D01*
X011590Y003610D01*
X011590Y003490D01*
X011636Y003380D01*
X011680Y003336D01*
X011680Y003302D01*
X011415Y003302D01*
X011355Y003242D01*
X011252Y003345D01*
X011312Y003405D01*
X011312Y004841D01*
X011321Y004847D01*
X011356Y004882D01*
X011383Y004923D01*
X011402Y004969D01*
X011412Y005017D01*
X011412Y005140D01*
X010867Y005140D01*
X010867Y005140D01*
X010867Y005140D01*
X010321Y005140D01*
X010321Y005189D02*
X009514Y005189D01*
X009096Y004893D02*
X008204Y004893D01*
X007709Y004795D02*
X006545Y004795D01*
X006545Y004893D02*
X007610Y004893D01*
X007512Y004992D02*
X006540Y004992D01*
X006495Y005090D02*
X007413Y005090D01*
X007315Y005189D02*
X006494Y005189D01*
X006539Y005287D02*
X007220Y005287D01*
X007220Y005386D02*
X006545Y005386D01*
X006545Y005484D02*
X007220Y005484D01*
X004446Y006371D02*
X004167Y006371D01*
X004069Y006272D02*
X004376Y006272D01*
X004350Y006174D02*
X003970Y006174D01*
X003872Y006075D02*
X004278Y006075D01*
X004180Y005977D02*
X003773Y005977D01*
X003770Y005878D02*
X004081Y005878D01*
X003983Y005780D02*
X003770Y005780D01*
X003743Y005681D02*
X003940Y005681D01*
X003940Y005583D02*
X003702Y005583D01*
X003619Y005484D02*
X003940Y005484D01*
X003940Y005386D02*
X003665Y005386D01*
X003790Y005287D02*
X003940Y005287D01*
X003940Y005189D02*
X003870Y005189D01*
X003924Y005090D02*
X003940Y005090D01*
X001798Y004105D02*
X001350Y004105D01*
X001350Y004007D02*
X001897Y004007D01*
X001995Y003908D02*
X001350Y003908D01*
X001350Y003810D02*
X002066Y003810D01*
X001954Y003711D02*
X001350Y003711D01*
X001350Y003613D02*
X001870Y003613D01*
X001870Y003514D02*
X001350Y003514D01*
X001350Y003416D02*
X001870Y003416D01*
X001870Y003317D02*
X001350Y003317D01*
X001350Y003219D02*
X001870Y003219D01*
X001870Y003120D02*
X001350Y003120D01*
X001350Y003022D02*
X001870Y003022D01*
X001870Y002923D02*
X001350Y002923D01*
X001350Y002825D02*
X001918Y002825D01*
X002633Y002825D02*
X002667Y002825D01*
X003382Y002825D02*
X003618Y002825D01*
X003570Y002923D02*
X003430Y002923D01*
X003430Y003022D02*
X003570Y003022D01*
X005117Y002726D02*
X011277Y002726D01*
X011179Y002825D02*
X005205Y002825D01*
X005230Y002923D02*
X011080Y002923D01*
X010982Y003022D02*
X010336Y003022D01*
X009964Y003022D02*
X005230Y003022D01*
X006440Y003613D02*
X006689Y003613D01*
X006689Y003711D02*
X006445Y003711D01*
X011280Y003317D02*
X011680Y003317D01*
X011621Y003416D02*
X011312Y003416D01*
X011312Y003514D02*
X011590Y003514D01*
X011591Y003613D02*
X011312Y003613D01*
X011312Y003711D02*
X011632Y003711D01*
X011733Y003810D02*
X011312Y003810D01*
X011312Y003908D02*
X011900Y003908D01*
X011907Y004007D02*
X011312Y004007D01*
X011312Y004105D02*
X011951Y004105D01*
X012076Y004204D02*
X011312Y004204D01*
X011312Y004302D02*
X012980Y004302D01*
X012980Y004204D02*
X012954Y004204D01*
X012706Y004204D02*
X012324Y004204D01*
X012449Y004105D02*
X012581Y004105D01*
X012537Y004007D02*
X012493Y004007D01*
X012500Y003908D02*
X012530Y003908D01*
X013420Y003855D02*
X013420Y003623D01*
X013360Y003563D01*
X013360Y003402D01*
X013465Y003402D01*
X013465Y002857D01*
X013465Y003402D01*
X013507Y003402D01*
X013470Y003490D01*
X013470Y003610D01*
X013516Y003720D01*
X013600Y003804D01*
X013710Y003850D01*
X013808Y003850D01*
X013800Y003870D01*
X013800Y003990D01*
X013846Y004100D01*
X013930Y004184D01*
X014040Y004230D01*
X014160Y004230D01*
X014270Y004184D01*
X014354Y004100D01*
X014400Y003990D01*
X014400Y003870D01*
X014392Y003850D01*
X014460Y003850D01*
X014570Y003804D01*
X014654Y003720D01*
X014700Y003610D01*
X014700Y003490D01*
X014654Y003380D01*
X014620Y003346D01*
X014620Y003302D01*
X014885Y003302D01*
X014973Y003214D01*
X014973Y003114D01*
X015060Y003150D01*
X015180Y003150D01*
X015290Y003104D01*
X015374Y003020D01*
X015420Y002910D01*
X015420Y002790D01*
X015374Y002680D01*
X015290Y002596D01*
X015180Y002550D01*
X015060Y002550D01*
X014973Y002586D01*
X014973Y002499D01*
X014885Y002411D01*
X013764Y002411D01*
X013758Y002402D01*
X013723Y002367D01*
X013682Y002340D01*
X013636Y002321D01*
X013588Y002311D01*
X013465Y002311D01*
X013465Y002857D01*
X013465Y002857D01*
X013465Y002857D01*
X013465Y002311D01*
X013406Y002311D01*
X013480Y002237D01*
X013480Y002195D01*
X013752Y002195D01*
X013840Y002107D01*
X013840Y001960D01*
X015145Y001960D01*
X016130Y002945D01*
X016130Y002945D01*
X016265Y003080D01*
X017585Y003080D01*
X017875Y003370D01*
X017773Y003370D01*
X017685Y003458D01*
X017685Y004094D01*
X017741Y004150D01*
X017685Y004206D01*
X017685Y004314D01*
X017535Y004314D01*
X017535Y004232D01*
X017544Y004226D01*
X017579Y004191D01*
X017607Y004150D01*
X017625Y004105D01*
X017696Y004105D01*
X017625Y004105D02*
X017635Y004057D01*
X017635Y003826D01*
X017120Y003826D01*
X017120Y003726D01*
X017635Y003726D01*
X017635Y003495D01*
X017625Y003447D01*
X017607Y003402D01*
X017579Y003361D01*
X017544Y003326D01*
X017503Y003299D01*
X017458Y003280D01*
X017410Y003270D01*
X017120Y003270D01*
X017120Y003726D01*
X017020Y003726D01*
X016505Y003726D01*
X016505Y003495D01*
X016515Y003447D01*
X016533Y003402D01*
X016561Y003361D01*
X016596Y003326D01*
X016637Y003299D01*
X016682Y003280D01*
X016730Y003270D01*
X017020Y003270D01*
X017020Y003726D01*
X017020Y003826D01*
X016505Y003826D01*
X016505Y004057D01*
X016515Y004105D01*
X016309Y004105D01*
X016300Y004096D02*
X016384Y004180D01*
X016430Y004290D01*
X016430Y004410D01*
X016384Y004520D01*
X016300Y004604D01*
X016274Y004615D01*
X016605Y004615D01*
X016605Y004232D01*
X016596Y004226D01*
X016561Y004191D01*
X016533Y004150D01*
X016515Y004105D01*
X016505Y004007D02*
X016090Y004007D01*
X016070Y004050D02*
X016190Y004050D01*
X016300Y004096D01*
X016394Y004204D02*
X016573Y004204D01*
X016605Y004302D02*
X016430Y004302D01*
X016430Y004401D02*
X016605Y004401D01*
X016605Y004499D02*
X016393Y004499D01*
X016307Y004598D02*
X016605Y004598D01*
X016961Y004930D02*
X016856Y005035D01*
X015979Y005035D01*
X015979Y005140D01*
X015979Y005245D01*
X016081Y005245D01*
X016120Y005206D01*
X016230Y005160D01*
X016350Y005160D01*
X016460Y005206D01*
X016544Y005290D01*
X016585Y005388D01*
X016585Y005308D01*
X016673Y005220D01*
X017427Y005220D01*
X017515Y005308D01*
X017515Y005918D01*
X017524Y005924D01*
X017559Y005959D01*
X017587Y006000D01*
X017605Y006045D01*
X017615Y006093D01*
X017615Y006324D01*
X017100Y006324D01*
X017100Y006424D01*
X017615Y006424D01*
X017615Y006655D01*
X017605Y006703D01*
X017587Y006748D01*
X017559Y006789D01*
X017524Y006824D01*
X017483Y006851D01*
X017438Y006870D01*
X017390Y006880D01*
X017100Y006880D01*
X017100Y006424D01*
X017000Y006424D01*
X017000Y006324D01*
X016485Y006324D01*
X016485Y006319D01*
X016460Y006344D01*
X016350Y006390D01*
X016250Y006390D01*
X016250Y006470D01*
X016204Y006580D01*
X016120Y006664D01*
X016010Y006710D01*
X015890Y006710D01*
X015879Y006705D01*
X015879Y006875D01*
X015791Y006963D01*
X015634Y006963D01*
X015450Y007147D01*
X015450Y007210D01*
X015404Y007320D01*
X015320Y007404D01*
X015210Y007450D01*
X015090Y007450D01*
X014980Y007404D01*
X014973Y007397D01*
X014973Y007781D01*
X014885Y007869D01*
X013675Y007869D01*
X013675Y008135D01*
X013862Y008135D01*
X013950Y008223D01*
X013950Y008977D01*
X013877Y009050D01*
X015815Y009050D01*
X015709Y008945D01*
X015630Y008753D01*
X015630Y008547D01*
X015709Y008355D01*
X015855Y008209D01*
X016047Y008130D01*
X016253Y008130D01*
X016445Y008209D01*
X016591Y008355D01*
X016650Y008498D01*
X016709Y008355D01*
X016855Y008209D01*
X017047Y008130D01*
X017253Y008130D01*
X017445Y008209D01*
X017591Y008355D01*
X017650Y008498D01*
X017709Y008355D01*
X017855Y008209D01*
X018047Y008130D01*
X018253Y008130D01*
X018445Y008209D01*
X018591Y008355D01*
X018650Y008498D01*
X018709Y008355D01*
X018855Y008209D01*
X019047Y008130D01*
X019253Y008130D01*
X019445Y008209D01*
X019591Y008355D01*
X019650Y008498D01*
X019709Y008355D01*
X019855Y008209D01*
X020047Y008130D01*
X020253Y008130D01*
X020445Y008209D01*
X020591Y008355D01*
X020650Y008498D01*
X020709Y008355D01*
X020855Y008209D01*
X021047Y008130D01*
X021253Y008130D01*
X021445Y008209D01*
X021591Y008355D01*
X021650Y008498D01*
X021709Y008355D01*
X021855Y008209D01*
X022047Y008130D01*
X022253Y008130D01*
X022445Y008209D01*
X022591Y008355D01*
X022650Y008498D01*
X022709Y008355D01*
X022855Y008209D01*
X023047Y008130D01*
X023253Y008130D01*
X023445Y008209D01*
X023591Y008355D01*
X023650Y008498D01*
X023709Y008355D01*
X023855Y008209D01*
X024047Y008130D01*
X024253Y008130D01*
X024445Y008209D01*
X024591Y008355D01*
X024670Y008547D01*
X024670Y008753D01*
X024591Y008945D01*
X024485Y009050D01*
X026150Y009050D01*
X026209Y009044D01*
X026317Y008999D01*
X026399Y008917D01*
X026444Y008809D01*
X026450Y008750D01*
X026450Y001550D01*
X026444Y001491D01*
X026399Y001383D01*
X026317Y001301D01*
X026209Y001256D01*
X026150Y001250D01*
X024626Y001250D01*
X024680Y001325D01*
X024725Y001412D01*
X024755Y001505D01*
X024770Y001600D01*
X024200Y001600D01*
X024200Y001700D01*
X024100Y001700D01*
X024100Y002270D01*
X024005Y002255D01*
X023912Y002225D01*
X023825Y002180D01*
X023746Y002123D01*
X023677Y002054D01*
X023620Y001975D01*
X023597Y001930D01*
X023591Y001945D01*
X023445Y002091D01*
X023253Y002170D01*
X023047Y002170D01*
X022855Y002091D01*
X022709Y001945D01*
X022650Y001802D01*
X022591Y001945D01*
X022445Y002091D01*
X022253Y002170D01*
X022047Y002170D01*
X021855Y002091D01*
X021709Y001945D01*
X021650Y001802D01*
X021591Y001945D01*
X021445Y002091D01*
X021253Y002170D01*
X021047Y002170D01*
X020855Y002091D01*
X020709Y001945D01*
X020650Y001802D01*
X020591Y001945D01*
X020445Y002091D01*
X020253Y002170D01*
X020047Y002170D01*
X019855Y002091D01*
X019709Y001945D01*
X019650Y001802D01*
X019591Y001945D01*
X019445Y002091D01*
X019253Y002170D01*
X019047Y002170D01*
X018855Y002091D01*
X018709Y001945D01*
X018650Y001802D01*
X018591Y001945D01*
X018445Y002091D01*
X018253Y002170D01*
X018047Y002170D01*
X017855Y002091D01*
X017709Y001945D01*
X017650Y001802D01*
X017591Y001945D01*
X017445Y002091D01*
X017253Y002170D01*
X017047Y002170D01*
X016855Y002091D01*
X016709Y001945D01*
X016650Y001802D01*
X016591Y001945D01*
X016445Y002091D01*
X016253Y002170D01*
X016047Y002170D01*
X015976Y002141D01*
X016455Y002620D01*
X017775Y002620D01*
X018245Y003090D01*
X018380Y003225D01*
X018380Y003370D01*
X018527Y003370D01*
X018615Y003458D01*
X018615Y003566D01*
X018703Y003566D01*
X018826Y003689D01*
X018916Y003779D01*
X018916Y003509D01*
X018926Y003461D01*
X018945Y003415D01*
X018972Y003374D01*
X019007Y003340D01*
X019048Y003312D01*
X019093Y003293D01*
X019142Y003284D01*
X019510Y003284D01*
X019510Y003799D01*
X019610Y003799D01*
X019610Y003899D01*
X020204Y003899D01*
X020204Y004188D01*
X020194Y004237D01*
X020175Y004282D01*
X020148Y004323D01*
X020113Y004358D01*
X020085Y004377D01*
X020085Y004555D01*
X020104Y004574D01*
X020104Y005328D01*
X020016Y005416D01*
X019810Y005416D01*
X019810Y005785D01*
X021045Y007020D01*
X021068Y007020D01*
X021060Y007012D01*
X021060Y006568D01*
X021148Y006480D01*
X021356Y006480D01*
X021356Y006385D01*
X021248Y006385D01*
X021160Y006297D01*
X021160Y005957D01*
X020653Y005450D01*
X020590Y005450D01*
X020480Y005404D01*
X020396Y005320D01*
X020350Y005210D01*
X020350Y005090D01*
X020104Y005090D01*
X020104Y004992D02*
X020391Y004992D01*
X020396Y004980D02*
X020480Y004896D01*
X020590Y004850D01*
X020599Y004850D01*
X020698Y004752D01*
X020698Y004344D01*
X020786Y004256D01*
X021500Y004256D01*
X021588Y004344D01*
X021588Y004393D01*
X022332Y004393D01*
X022332Y004344D01*
X022420Y004256D01*
X023134Y004256D01*
X023222Y004344D01*
X023222Y004393D01*
X023628Y004393D01*
X023681Y004340D01*
X023625Y004284D01*
X023625Y003648D01*
X023713Y003560D01*
X023943Y003560D01*
X024940Y002563D01*
X025063Y002440D01*
X025074Y002440D01*
X025109Y002355D01*
X025255Y002209D01*
X025447Y002130D01*
X025653Y002130D01*
X025845Y002209D01*
X025991Y002355D01*
X026070Y002547D01*
X026070Y002753D01*
X025991Y002945D01*
X025845Y003091D01*
X025750Y003130D01*
X025753Y003130D01*
X025945Y003209D01*
X026091Y003355D01*
X026170Y003547D01*
X026170Y003753D01*
X026091Y003945D01*
X025945Y004091D01*
X025753Y004170D01*
X025750Y004170D01*
X025845Y004209D01*
X025991Y004355D01*
X026070Y004547D01*
X026070Y004753D01*
X025991Y004945D01*
X025845Y005091D01*
X025750Y005130D01*
X025753Y005130D01*
X025945Y005209D01*
X026091Y005355D01*
X026170Y005547D01*
X026170Y005753D01*
X026091Y005945D01*
X025945Y006091D01*
X025875Y006120D01*
X025954Y006177D01*
X026023Y006246D01*
X026080Y006325D01*
X026125Y006412D01*
X026155Y006505D01*
X026170Y006600D01*
X025600Y006600D01*
X025600Y006700D01*
X026170Y006700D01*
X026155Y006795D01*
X026125Y006888D01*
X026080Y006975D01*
X026023Y007054D01*
X025963Y007114D01*
X025975Y007120D01*
X026054Y007177D01*
X026123Y007246D01*
X026180Y007325D01*
X026225Y007412D01*
X026255Y007505D01*
X026270Y007600D01*
X025700Y007600D01*
X025700Y007700D01*
X025600Y007700D01*
X025600Y008270D01*
X025505Y008255D01*
X025412Y008225D01*
X025325Y008180D01*
X025246Y008123D01*
X025177Y008054D01*
X025120Y007975D01*
X025075Y007888D01*
X025045Y007795D01*
X025030Y007700D01*
X025600Y007700D01*
X025600Y007600D01*
X025030Y007600D01*
X025045Y007505D01*
X025075Y007412D01*
X025120Y007325D01*
X025177Y007246D01*
X025237Y007186D01*
X025225Y007180D01*
X025146Y007123D01*
X025077Y007054D01*
X025020Y006975D01*
X024975Y006888D01*
X024945Y006795D01*
X024930Y006700D01*
X025500Y006700D01*
X025500Y006600D01*
X024930Y006600D01*
X024945Y006505D01*
X024975Y006412D01*
X025020Y006325D01*
X025077Y006246D01*
X025146Y006177D01*
X025225Y006120D01*
X025312Y006075D01*
X025333Y006069D01*
X025209Y005945D01*
X025182Y005880D01*
X024545Y005880D01*
X022945Y007480D01*
X020855Y007480D01*
X020720Y007345D01*
X019350Y005975D01*
X019350Y005416D01*
X019104Y005416D01*
X019016Y005328D01*
X019016Y004943D01*
X018753Y004680D01*
X018630Y004557D01*
X018630Y004087D01*
X018615Y004072D01*
X018615Y004094D01*
X018559Y004150D01*
X018615Y004206D01*
X018615Y004842D01*
X018527Y004930D01*
X017773Y004930D01*
X017685Y004842D01*
X017685Y004734D01*
X017535Y004734D01*
X017535Y004842D01*
X017447Y004930D01*
X016961Y004930D01*
X016899Y004992D02*
X019016Y004992D01*
X019016Y005090D02*
X015979Y005090D01*
X015979Y005140D02*
X015433Y005140D01*
X014888Y005140D01*
X014888Y005017D01*
X014898Y004969D01*
X014917Y004923D01*
X014944Y004882D01*
X014979Y004847D01*
X014988Y004841D01*
X014988Y004405D01*
X014929Y004405D01*
X014880Y004454D01*
X014770Y004500D01*
X014650Y004500D01*
X014540Y004454D01*
X014456Y004370D01*
X014410Y004260D01*
X014410Y004140D01*
X014456Y004030D01*
X014540Y003946D01*
X014650Y003900D01*
X014770Y003900D01*
X014880Y003946D01*
X014919Y003985D01*
X014988Y003985D01*
X014988Y003405D01*
X015076Y003317D01*
X014620Y003317D01*
X014669Y003416D02*
X014988Y003416D01*
X014988Y003514D02*
X014700Y003514D01*
X014699Y003613D02*
X014988Y003613D01*
X014988Y003711D02*
X014658Y003711D01*
X014557Y003810D02*
X014988Y003810D01*
X014988Y003908D02*
X014789Y003908D01*
X014631Y003908D02*
X014400Y003908D01*
X014393Y004007D02*
X014479Y004007D01*
X014425Y004105D02*
X014349Y004105D01*
X014410Y004204D02*
X014224Y004204D01*
X014428Y004302D02*
X013440Y004302D01*
X013440Y004204D02*
X013976Y004204D01*
X013851Y004105D02*
X013440Y004105D01*
X013440Y004007D02*
X013807Y004007D01*
X013800Y003908D02*
X013440Y003908D01*
X013440Y003875D02*
X013440Y006445D01*
X013550Y006555D01*
X013550Y006583D01*
X013570Y006603D01*
X013570Y006564D01*
X013526Y006520D01*
X013480Y006410D01*
X013480Y006290D01*
X013526Y006180D01*
X013610Y006096D01*
X013720Y006050D01*
X013840Y006050D01*
X013950Y006096D01*
X014034Y006180D01*
X014080Y006290D01*
X014080Y006410D01*
X014063Y006450D01*
X014117Y006450D01*
X014100Y006410D01*
X014100Y006290D01*
X014146Y006180D01*
X014230Y006096D01*
X014340Y006050D01*
X014460Y006050D01*
X014570Y006096D01*
X014654Y006180D01*
X014700Y006290D01*
X014700Y006410D01*
X014683Y006450D01*
X014780Y006450D01*
X014890Y006496D01*
X014974Y006580D01*
X014988Y006614D01*
X014988Y006554D01*
X014988Y005439D01*
X014979Y005433D01*
X014944Y005398D01*
X014917Y005357D01*
X014898Y005311D01*
X014888Y005263D01*
X014888Y005140D01*
X015433Y005140D01*
X015433Y005140D01*
X015979Y005140D01*
X015979Y005189D02*
X016161Y005189D01*
X016419Y005189D02*
X019016Y005189D01*
X019016Y005287D02*
X017494Y005287D01*
X017515Y005386D02*
X019074Y005386D01*
X019350Y005484D02*
X017515Y005484D01*
X017515Y005583D02*
X019350Y005583D01*
X019350Y005681D02*
X017515Y005681D01*
X017515Y005780D02*
X019350Y005780D01*
X019350Y005878D02*
X017515Y005878D01*
X017571Y005977D02*
X019351Y005977D01*
X019450Y006075D02*
X017611Y006075D01*
X017615Y006174D02*
X019548Y006174D01*
X019647Y006272D02*
X017615Y006272D01*
X017615Y006469D02*
X019844Y006469D01*
X019942Y006568D02*
X017615Y006568D01*
X017613Y006666D02*
X020041Y006666D01*
X020139Y006765D02*
X017576Y006765D01*
X017456Y006863D02*
X020238Y006863D01*
X020336Y006962D02*
X015793Y006962D01*
X015879Y006863D02*
X016644Y006863D01*
X016662Y006870D02*
X016617Y006851D01*
X016576Y006824D01*
X016541Y006789D01*
X016513Y006748D01*
X016495Y006703D01*
X016485Y006655D01*
X016485Y006424D01*
X017000Y006424D01*
X017000Y006880D01*
X016710Y006880D01*
X016662Y006870D01*
X016524Y006765D02*
X015879Y006765D01*
X016116Y006666D02*
X016487Y006666D01*
X016485Y006568D02*
X016209Y006568D01*
X016250Y006469D02*
X016485Y006469D01*
X016397Y006371D02*
X017000Y006371D01*
X017000Y006469D02*
X017100Y006469D01*
X017100Y006371D02*
X019745Y006371D01*
X020199Y006174D02*
X021160Y006174D01*
X021160Y006272D02*
X020297Y006272D01*
X020396Y006371D02*
X021233Y006371D01*
X021356Y006469D02*
X020494Y006469D01*
X020593Y006568D02*
X021060Y006568D01*
X021060Y006666D02*
X020691Y006666D01*
X020790Y006765D02*
X021060Y006765D01*
X021060Y006863D02*
X020888Y006863D01*
X020987Y006962D02*
X021060Y006962D01*
X020533Y007159D02*
X015450Y007159D01*
X015430Y007257D02*
X020632Y007257D01*
X020730Y007356D02*
X015369Y007356D01*
X014973Y007454D02*
X020829Y007454D01*
X020435Y007060D02*
X015537Y007060D01*
X014988Y006568D02*
X014962Y006568D01*
X014988Y006469D02*
X014826Y006469D01*
X014700Y006371D02*
X014988Y006371D01*
X014988Y006272D02*
X014692Y006272D01*
X014648Y006174D02*
X014988Y006174D01*
X014988Y006075D02*
X014520Y006075D01*
X014280Y006075D02*
X013900Y006075D01*
X014028Y006174D02*
X014152Y006174D01*
X014108Y006272D02*
X014072Y006272D01*
X014080Y006371D02*
X014100Y006371D01*
X013570Y006568D02*
X013550Y006568D01*
X013505Y006469D02*
X013464Y006469D01*
X013480Y006371D02*
X013440Y006371D01*
X013440Y006272D02*
X013488Y006272D01*
X013532Y006174D02*
X013440Y006174D01*
X013440Y006075D02*
X013660Y006075D01*
X013440Y005977D02*
X014988Y005977D01*
X014988Y005878D02*
X013440Y005878D01*
X013440Y005780D02*
X014988Y005780D01*
X014988Y005681D02*
X013440Y005681D01*
X013440Y005583D02*
X014988Y005583D01*
X014988Y005484D02*
X013440Y005484D01*
X013440Y005386D02*
X014936Y005386D01*
X014893Y005287D02*
X013440Y005287D01*
X013440Y005189D02*
X014888Y005189D01*
X014888Y005090D02*
X013440Y005090D01*
X013440Y004992D02*
X014893Y004992D01*
X014937Y004893D02*
X013440Y004893D01*
X013440Y004795D02*
X014988Y004795D01*
X014988Y004696D02*
X013440Y004696D01*
X013440Y004598D02*
X014988Y004598D01*
X014988Y004499D02*
X014772Y004499D01*
X014648Y004499D02*
X013440Y004499D01*
X013440Y004401D02*
X014486Y004401D01*
X013440Y003875D02*
X013420Y003855D01*
X013420Y003810D02*
X013613Y003810D01*
X013512Y003711D02*
X013420Y003711D01*
X013409Y003613D02*
X013471Y003613D01*
X013470Y003514D02*
X013360Y003514D01*
X013360Y003416D02*
X013501Y003416D01*
X013465Y003317D02*
X013465Y003317D01*
X013465Y003219D02*
X013465Y003219D01*
X013465Y003120D02*
X013465Y003120D01*
X013465Y003022D02*
X013465Y003022D01*
X013465Y002923D02*
X013465Y002923D01*
X013465Y002825D02*
X013465Y002825D01*
X013465Y002726D02*
X013465Y002726D01*
X013465Y002628D02*
X013465Y002628D01*
X013465Y002529D02*
X013465Y002529D01*
X013465Y002431D02*
X013465Y002431D01*
X013465Y002332D02*
X013465Y002332D01*
X013480Y002234D02*
X015418Y002234D01*
X015517Y002332D02*
X013663Y002332D01*
X013812Y002135D02*
X015320Y002135D01*
X015221Y002037D02*
X013840Y002037D01*
X014905Y002431D02*
X015615Y002431D01*
X015714Y002529D02*
X014973Y002529D01*
X015322Y002628D02*
X015812Y002628D01*
X015911Y002726D02*
X015393Y002726D01*
X015420Y002825D02*
X016009Y002825D01*
X016108Y002923D02*
X015847Y002923D01*
X015820Y002896D02*
X015904Y002980D01*
X015950Y003090D01*
X015950Y003210D01*
X015904Y003320D01*
X015849Y003375D01*
X015879Y003405D01*
X015879Y003521D01*
X015896Y003480D01*
X015980Y003396D01*
X016090Y003350D01*
X016210Y003350D01*
X016320Y003396D01*
X016404Y003480D01*
X016450Y003590D01*
X016450Y003710D01*
X016404Y003820D01*
X016320Y003904D01*
X016210Y003950D01*
X016147Y003950D01*
X016030Y004067D01*
X016070Y004050D01*
X016311Y003908D02*
X016505Y003908D01*
X016409Y003810D02*
X017020Y003810D01*
X017020Y003711D02*
X017120Y003711D01*
X017120Y003613D02*
X017020Y003613D01*
X017020Y003514D02*
X017120Y003514D01*
X017120Y003416D02*
X017020Y003416D01*
X017020Y003317D02*
X017120Y003317D01*
X017531Y003317D02*
X017822Y003317D01*
X017727Y003416D02*
X017612Y003416D01*
X017635Y003514D02*
X017685Y003514D01*
X017685Y003613D02*
X017635Y003613D01*
X017635Y003711D02*
X017685Y003711D01*
X017685Y003810D02*
X017120Y003810D01*
X017635Y003908D02*
X017685Y003908D01*
X017685Y004007D02*
X017635Y004007D01*
X017688Y004204D02*
X017567Y004204D01*
X017535Y004302D02*
X017685Y004302D01*
X018615Y004302D02*
X018630Y004302D01*
X018630Y004204D02*
X018612Y004204D01*
X018604Y004105D02*
X018630Y004105D01*
X018615Y004401D02*
X018630Y004401D01*
X018630Y004499D02*
X018615Y004499D01*
X018615Y004598D02*
X018671Y004598D01*
X018615Y004696D02*
X018769Y004696D01*
X018868Y004795D02*
X018615Y004795D01*
X018564Y004893D02*
X018966Y004893D01*
X020104Y004893D02*
X020486Y004893D01*
X020396Y004980D02*
X020350Y005090D01*
X020350Y005189D02*
X020104Y005189D01*
X020104Y005287D02*
X020382Y005287D01*
X020461Y005386D02*
X020046Y005386D01*
X019810Y005484D02*
X020687Y005484D01*
X020786Y005583D02*
X019810Y005583D01*
X019810Y005681D02*
X020884Y005681D01*
X020983Y005780D02*
X019810Y005780D01*
X019903Y005878D02*
X021081Y005878D01*
X021160Y005977D02*
X020002Y005977D01*
X020100Y006075D02*
X021160Y006075D01*
X021884Y005455D02*
X021940Y005511D01*
X021996Y005455D01*
X022632Y005455D01*
X022720Y005543D01*
X022720Y006297D01*
X022632Y006385D01*
X022524Y006385D01*
X022524Y006480D01*
X022652Y006480D01*
X022740Y006568D01*
X022740Y007012D01*
X022732Y007020D01*
X022755Y007020D01*
X024220Y005555D01*
X024355Y005420D01*
X025182Y005420D01*
X025209Y005355D01*
X025355Y005209D01*
X025450Y005170D01*
X025447Y005170D01*
X025255Y005091D01*
X025109Y004945D01*
X025030Y004753D01*
X025030Y004547D01*
X025109Y004355D01*
X025255Y004209D01*
X025447Y004130D01*
X025450Y004130D01*
X025355Y004091D01*
X025209Y003945D01*
X025130Y003753D01*
X025130Y003547D01*
X025209Y003355D01*
X025355Y003209D01*
X025450Y003170D01*
X025447Y003170D01*
X025255Y003091D01*
X025131Y002966D01*
X024502Y003595D01*
X024555Y003648D01*
X024555Y004284D01*
X024499Y004340D01*
X024555Y004396D01*
X024555Y005032D01*
X024467Y005120D01*
X023713Y005120D01*
X023625Y005032D01*
X023625Y004813D01*
X023222Y004813D01*
X023222Y004862D01*
X023134Y004950D01*
X022420Y004950D01*
X022332Y004862D01*
X022332Y004813D01*
X021588Y004813D01*
X021588Y004862D01*
X021500Y004950D01*
X021093Y004950D01*
X020950Y005093D01*
X020950Y005153D01*
X021252Y005455D01*
X021884Y005455D01*
X021913Y005484D02*
X021967Y005484D01*
X022661Y005484D02*
X024291Y005484D01*
X024192Y005583D02*
X022720Y005583D01*
X022720Y005681D02*
X024094Y005681D01*
X023995Y005780D02*
X022720Y005780D01*
X022720Y005878D02*
X023897Y005878D01*
X023798Y005977D02*
X022720Y005977D01*
X022720Y006075D02*
X023700Y006075D01*
X023601Y006174D02*
X022720Y006174D01*
X022720Y006272D02*
X023503Y006272D01*
X023404Y006371D02*
X022646Y006371D01*
X022524Y006469D02*
X023306Y006469D01*
X023207Y006568D02*
X022740Y006568D01*
X022740Y006666D02*
X023109Y006666D01*
X023010Y006765D02*
X022740Y006765D01*
X022740Y006863D02*
X022912Y006863D01*
X022813Y006962D02*
X022740Y006962D01*
X023267Y007159D02*
X025195Y007159D01*
X025169Y007257D02*
X023168Y007257D01*
X023070Y007356D02*
X025104Y007356D01*
X025062Y007454D02*
X022971Y007454D01*
X023365Y007060D02*
X025083Y007060D01*
X025013Y006962D02*
X023464Y006962D01*
X023562Y006863D02*
X024967Y006863D01*
X024940Y006765D02*
X023661Y006765D01*
X023759Y006666D02*
X025500Y006666D01*
X025600Y006666D02*
X026450Y006666D01*
X026450Y006568D02*
X026165Y006568D01*
X026143Y006469D02*
X026450Y006469D01*
X026450Y006371D02*
X026103Y006371D01*
X026042Y006272D02*
X026450Y006272D01*
X026450Y006174D02*
X025949Y006174D01*
X025875Y006120D02*
X025875Y006120D01*
X025960Y006075D02*
X026450Y006075D01*
X026450Y005977D02*
X026059Y005977D01*
X026118Y005878D02*
X026450Y005878D01*
X026450Y005780D02*
X026159Y005780D01*
X026170Y005681D02*
X026450Y005681D01*
X026450Y005583D02*
X026170Y005583D01*
X026144Y005484D02*
X026450Y005484D01*
X026450Y005386D02*
X026103Y005386D01*
X026022Y005287D02*
X026450Y005287D01*
X026450Y005189D02*
X025895Y005189D01*
X025845Y005090D02*
X026450Y005090D01*
X026450Y004992D02*
X025944Y004992D01*
X026012Y004893D02*
X026450Y004893D01*
X026450Y004795D02*
X026053Y004795D01*
X026070Y004696D02*
X026450Y004696D01*
X026450Y004598D02*
X026070Y004598D01*
X026050Y004499D02*
X026450Y004499D01*
X026450Y004401D02*
X026010Y004401D01*
X025937Y004302D02*
X026450Y004302D01*
X026450Y004204D02*
X025831Y004204D01*
X025910Y004105D02*
X026450Y004105D01*
X026450Y004007D02*
X026029Y004007D01*
X026106Y003908D02*
X026450Y003908D01*
X026450Y003810D02*
X026147Y003810D01*
X026170Y003711D02*
X026450Y003711D01*
X026450Y003613D02*
X026170Y003613D01*
X026157Y003514D02*
X026450Y003514D01*
X026450Y003416D02*
X026116Y003416D01*
X026052Y003317D02*
X026450Y003317D01*
X026450Y003219D02*
X025954Y003219D01*
X025774Y003120D02*
X026450Y003120D01*
X026450Y003022D02*
X025914Y003022D01*
X026000Y002923D02*
X026450Y002923D01*
X026450Y002825D02*
X026041Y002825D01*
X026070Y002726D02*
X026450Y002726D01*
X026450Y002628D02*
X026070Y002628D01*
X026063Y002529D02*
X026450Y002529D01*
X026450Y002431D02*
X026022Y002431D01*
X025967Y002332D02*
X026450Y002332D01*
X026450Y002234D02*
X025869Y002234D01*
X025666Y002135D02*
X026450Y002135D01*
X026450Y002037D02*
X024636Y002037D01*
X024623Y002054D02*
X024554Y002123D01*
X024475Y002180D01*
X024388Y002225D01*
X024295Y002255D01*
X024200Y002270D01*
X024200Y001700D01*
X024770Y001700D01*
X024755Y001795D01*
X024725Y001888D01*
X024680Y001975D01*
X024623Y002054D01*
X024537Y002135D02*
X025434Y002135D01*
X025231Y002234D02*
X024361Y002234D01*
X024200Y002234D02*
X024100Y002234D01*
X024100Y002135D02*
X024200Y002135D01*
X024200Y002037D02*
X024100Y002037D01*
X024100Y001938D02*
X024200Y001938D01*
X024200Y001840D02*
X024100Y001840D01*
X024100Y001741D02*
X024200Y001741D01*
X024200Y001643D02*
X026450Y001643D01*
X026450Y001741D02*
X024763Y001741D01*
X024740Y001840D02*
X026450Y001840D01*
X026450Y001938D02*
X024699Y001938D01*
X023939Y002234D02*
X016069Y002234D01*
X016167Y002332D02*
X025133Y002332D01*
X025078Y002431D02*
X016266Y002431D01*
X016364Y002529D02*
X024974Y002529D01*
X024876Y002628D02*
X017783Y002628D01*
X017881Y002726D02*
X024777Y002726D01*
X024679Y002825D02*
X017980Y002825D01*
X018078Y002923D02*
X024580Y002923D01*
X024482Y003022D02*
X018177Y003022D01*
X018275Y003120D02*
X024383Y003120D01*
X024285Y003219D02*
X018374Y003219D01*
X018380Y003317D02*
X019041Y003317D01*
X018945Y003416D02*
X018573Y003416D01*
X018615Y003514D02*
X018916Y003514D01*
X018916Y003613D02*
X018749Y003613D01*
X018826Y003689D02*
X018826Y003689D01*
X018848Y003711D02*
X018916Y003711D01*
X019510Y003711D02*
X019610Y003711D01*
X019610Y003799D02*
X019610Y003284D01*
X019978Y003284D01*
X020027Y003293D01*
X020072Y003312D01*
X020113Y003340D01*
X020148Y003374D01*
X020175Y003415D01*
X020194Y003461D01*
X020204Y003509D01*
X020204Y003799D01*
X019610Y003799D01*
X019610Y003810D02*
X020598Y003810D01*
X020598Y003805D02*
X021095Y003805D01*
X021095Y004204D01*
X020823Y004204D01*
X020775Y004194D01*
X020729Y004175D01*
X020688Y004148D01*
X020654Y004113D01*
X020626Y004072D01*
X020607Y004027D01*
X020598Y003978D01*
X020598Y003805D01*
X020598Y003708D02*
X020598Y003535D01*
X020607Y003487D01*
X020626Y003442D01*
X020654Y003401D01*
X020688Y003366D01*
X020729Y003338D01*
X020775Y003320D01*
X020823Y003310D01*
X021095Y003310D01*
X021095Y003708D01*
X021191Y003708D01*
X021191Y003310D01*
X021463Y003310D01*
X021511Y003320D01*
X021557Y003338D01*
X021598Y003366D01*
X021633Y003401D01*
X021660Y003442D01*
X021679Y003487D01*
X021688Y003535D01*
X021688Y003708D01*
X021192Y003708D01*
X021192Y003805D01*
X021688Y003805D01*
X021688Y003978D01*
X021679Y004027D01*
X021660Y004072D01*
X021633Y004113D01*
X021598Y004148D01*
X021557Y004175D01*
X021511Y004194D01*
X021463Y004204D01*
X021191Y004204D01*
X021191Y003805D01*
X021095Y003805D01*
X021095Y003708D01*
X020598Y003708D01*
X020598Y003613D02*
X020204Y003613D01*
X020204Y003711D02*
X021095Y003711D01*
X021192Y003711D02*
X022728Y003711D01*
X022728Y003708D02*
X022232Y003708D01*
X022232Y003535D01*
X022241Y003487D01*
X022260Y003442D01*
X022287Y003401D01*
X022322Y003366D01*
X022363Y003338D01*
X022409Y003320D01*
X022457Y003310D01*
X022729Y003310D01*
X022729Y003708D01*
X022825Y003708D01*
X022825Y003310D01*
X023097Y003310D01*
X023145Y003320D01*
X023191Y003338D01*
X023232Y003366D01*
X023266Y003401D01*
X023294Y003442D01*
X023313Y003487D01*
X023322Y003535D01*
X023322Y003708D01*
X022825Y003708D01*
X022825Y003805D01*
X022729Y003805D01*
X022729Y004204D01*
X022457Y004204D01*
X022409Y004194D01*
X022363Y004175D01*
X022322Y004148D01*
X022287Y004113D01*
X022260Y004072D01*
X022241Y004027D01*
X022232Y003978D01*
X022232Y003805D01*
X022728Y003805D01*
X022728Y003708D01*
X022729Y003613D02*
X022825Y003613D01*
X022825Y003711D02*
X023625Y003711D01*
X023625Y003810D02*
X023322Y003810D01*
X023322Y003805D02*
X023322Y003978D01*
X023313Y004027D01*
X023294Y004072D01*
X023266Y004113D01*
X023232Y004148D01*
X023191Y004175D01*
X023145Y004194D01*
X023097Y004204D01*
X022825Y004204D01*
X022825Y003805D01*
X023322Y003805D01*
X023322Y003908D02*
X023625Y003908D01*
X023625Y004007D02*
X023317Y004007D01*
X023272Y004105D02*
X023625Y004105D01*
X023625Y004204D02*
X023097Y004204D01*
X023180Y004302D02*
X023643Y004302D01*
X022825Y004204D02*
X022729Y004204D01*
X022729Y004105D02*
X022825Y004105D01*
X022825Y004007D02*
X022729Y004007D01*
X022729Y003908D02*
X022825Y003908D01*
X022825Y003810D02*
X022729Y003810D01*
X022729Y003514D02*
X022825Y003514D01*
X022825Y003416D02*
X022729Y003416D01*
X022729Y003317D02*
X022825Y003317D01*
X023132Y003317D02*
X024186Y003317D01*
X024088Y003416D02*
X023276Y003416D01*
X023318Y003514D02*
X023989Y003514D01*
X023660Y003613D02*
X023322Y003613D01*
X022421Y003317D02*
X021499Y003317D01*
X021643Y003416D02*
X022277Y003416D01*
X022236Y003514D02*
X021684Y003514D01*
X021688Y003613D02*
X022232Y003613D01*
X022232Y003810D02*
X021688Y003810D01*
X021688Y003908D02*
X022232Y003908D01*
X022237Y004007D02*
X021683Y004007D01*
X021638Y004105D02*
X022282Y004105D01*
X022456Y004204D02*
X021464Y004204D01*
X021546Y004302D02*
X022374Y004302D01*
X021191Y004204D02*
X021095Y004204D01*
X021095Y004105D02*
X021191Y004105D01*
X021191Y004007D02*
X021095Y004007D01*
X021095Y003908D02*
X021191Y003908D01*
X021191Y003810D02*
X021095Y003810D01*
X021095Y003613D02*
X021191Y003613D01*
X021191Y003514D02*
X021095Y003514D01*
X021095Y003416D02*
X021191Y003416D01*
X021191Y003317D02*
X021095Y003317D01*
X020788Y003317D02*
X020079Y003317D01*
X020175Y003416D02*
X020644Y003416D01*
X020602Y003514D02*
X020204Y003514D01*
X019610Y003514D02*
X019510Y003514D01*
X019510Y003416D02*
X019610Y003416D01*
X019610Y003317D02*
X019510Y003317D01*
X019510Y003613D02*
X019610Y003613D01*
X020204Y003908D02*
X020598Y003908D01*
X020603Y004007D02*
X020204Y004007D01*
X020204Y004105D02*
X020648Y004105D01*
X020823Y004204D02*
X020201Y004204D01*
X020162Y004302D02*
X020740Y004302D01*
X020698Y004401D02*
X020085Y004401D01*
X020085Y004499D02*
X020698Y004499D01*
X020698Y004598D02*
X020104Y004598D01*
X020104Y004696D02*
X020698Y004696D01*
X020655Y004795D02*
X020104Y004795D01*
X020953Y005090D02*
X023683Y005090D01*
X023625Y004992D02*
X021052Y004992D01*
X020985Y005189D02*
X025405Y005189D01*
X025278Y005287D02*
X021084Y005287D01*
X021182Y005386D02*
X025197Y005386D01*
X025255Y005090D02*
X024497Y005090D01*
X024555Y004992D02*
X025156Y004992D01*
X025088Y004893D02*
X024555Y004893D01*
X024555Y004795D02*
X025047Y004795D01*
X025030Y004696D02*
X024555Y004696D01*
X024555Y004598D02*
X025030Y004598D01*
X025050Y004499D02*
X024555Y004499D01*
X024555Y004401D02*
X025090Y004401D01*
X025163Y004302D02*
X024537Y004302D01*
X024555Y004204D02*
X025269Y004204D01*
X025390Y004105D02*
X024555Y004105D01*
X024555Y004007D02*
X025271Y004007D01*
X025194Y003908D02*
X024555Y003908D01*
X024555Y003810D02*
X025153Y003810D01*
X025130Y003711D02*
X024555Y003711D01*
X024520Y003613D02*
X025130Y003613D01*
X025143Y003514D02*
X024583Y003514D01*
X024681Y003416D02*
X025184Y003416D01*
X025248Y003317D02*
X024780Y003317D01*
X024878Y003219D02*
X025346Y003219D01*
X025326Y003120D02*
X024977Y003120D01*
X025075Y003022D02*
X025186Y003022D01*
X023763Y002135D02*
X023338Y002135D01*
X023499Y002037D02*
X023664Y002037D01*
X023601Y001938D02*
X023594Y001938D01*
X022962Y002135D02*
X022338Y002135D01*
X022499Y002037D02*
X022801Y002037D01*
X022706Y001938D02*
X022594Y001938D01*
X022634Y001840D02*
X022666Y001840D01*
X021962Y002135D02*
X021338Y002135D01*
X021499Y002037D02*
X021801Y002037D01*
X021706Y001938D02*
X021594Y001938D01*
X021634Y001840D02*
X021666Y001840D01*
X020962Y002135D02*
X020338Y002135D01*
X020499Y002037D02*
X020801Y002037D01*
X020706Y001938D02*
X020594Y001938D01*
X020634Y001840D02*
X020666Y001840D01*
X019962Y002135D02*
X019338Y002135D01*
X019499Y002037D02*
X019801Y002037D01*
X019706Y001938D02*
X019594Y001938D01*
X019634Y001840D02*
X019666Y001840D01*
X018962Y002135D02*
X018338Y002135D01*
X018499Y002037D02*
X018801Y002037D01*
X018706Y001938D02*
X018594Y001938D01*
X018634Y001840D02*
X018666Y001840D01*
X017962Y002135D02*
X017338Y002135D01*
X017499Y002037D02*
X017801Y002037D01*
X017706Y001938D02*
X017594Y001938D01*
X017634Y001840D02*
X017666Y001840D01*
X016962Y002135D02*
X016338Y002135D01*
X016499Y002037D02*
X016801Y002037D01*
X016706Y001938D02*
X016594Y001938D01*
X016634Y001840D02*
X016666Y001840D01*
X015820Y002896D02*
X015710Y002850D01*
X015590Y002850D01*
X015480Y002896D01*
X015396Y002980D01*
X015350Y003090D01*
X015350Y003153D01*
X015223Y003280D01*
X015223Y003317D01*
X015076Y003317D01*
X014969Y003219D02*
X015285Y003219D01*
X015252Y003120D02*
X015350Y003120D01*
X015373Y003022D02*
X015379Y003022D01*
X015414Y002923D02*
X015453Y002923D01*
X015921Y003022D02*
X016206Y003022D01*
X015950Y003120D02*
X017625Y003120D01*
X017723Y003219D02*
X015946Y003219D01*
X015906Y003317D02*
X016609Y003317D01*
X016528Y003416D02*
X016340Y003416D01*
X016418Y003514D02*
X016505Y003514D01*
X016505Y003613D02*
X016450Y003613D01*
X016449Y003711D02*
X016505Y003711D01*
X015882Y003514D02*
X015879Y003514D01*
X015879Y003416D02*
X015960Y003416D01*
X014988Y003120D02*
X014973Y003120D01*
X012980Y004401D02*
X011312Y004401D01*
X011312Y004499D02*
X012980Y004499D01*
X012980Y004598D02*
X011312Y004598D01*
X011312Y004696D02*
X012980Y004696D01*
X012980Y004795D02*
X011312Y004795D01*
X011363Y004893D02*
X012980Y004893D01*
X012980Y004992D02*
X011407Y004992D01*
X011412Y005090D02*
X012980Y005090D01*
X012916Y005189D02*
X011412Y005189D01*
X011355Y005670D02*
X011312Y005670D01*
X011312Y006875D01*
X011224Y006963D01*
X011200Y006963D01*
X011327Y007090D01*
X011327Y007066D01*
X011415Y006978D01*
X011680Y006978D01*
X011680Y006974D01*
X011626Y006920D01*
X011580Y006810D01*
X011580Y006690D01*
X011626Y006580D01*
X011710Y006496D01*
X011820Y006450D01*
X011917Y006450D01*
X011900Y006410D01*
X011900Y006290D01*
X011946Y006180D01*
X012030Y006096D01*
X012140Y006050D01*
X012260Y006050D01*
X012370Y006096D01*
X012454Y006180D01*
X012500Y006290D01*
X012500Y006410D01*
X012483Y006450D01*
X012557Y006450D01*
X012540Y006410D01*
X012540Y006290D01*
X012586Y006180D01*
X012670Y006096D01*
X012780Y006050D01*
X012900Y006050D01*
X012980Y006083D01*
X012980Y005795D01*
X012875Y005690D01*
X011375Y005690D01*
X011355Y005670D01*
X011366Y005681D02*
X011312Y005681D01*
X011312Y005780D02*
X012964Y005780D01*
X012980Y005878D02*
X011312Y005878D01*
X011312Y005977D02*
X012980Y005977D01*
X012980Y006075D02*
X012960Y006075D01*
X012720Y006075D02*
X012320Y006075D01*
X012448Y006174D02*
X012592Y006174D01*
X012548Y006272D02*
X012492Y006272D01*
X012500Y006371D02*
X012540Y006371D01*
X011952Y006174D02*
X011312Y006174D01*
X011312Y006272D02*
X011908Y006272D01*
X011900Y006371D02*
X011312Y006371D01*
X011312Y006469D02*
X011774Y006469D01*
X011638Y006568D02*
X011312Y006568D01*
X011312Y006666D02*
X011590Y006666D01*
X011580Y006765D02*
X011312Y006765D01*
X011312Y006863D02*
X011602Y006863D01*
X011667Y006962D02*
X011226Y006962D01*
X011297Y007060D02*
X011333Y007060D01*
X010900Y007257D02*
X010357Y007257D01*
X009567Y006962D02*
X009515Y006962D01*
X009000Y007257D02*
X008900Y007257D01*
X008900Y007356D02*
X009000Y007356D01*
X009000Y007454D02*
X008900Y007454D01*
X008900Y007553D02*
X009000Y007553D01*
X008543Y007553D02*
X004360Y007553D01*
X004360Y007454D02*
X008424Y007454D01*
X008387Y007356D02*
X004360Y007356D01*
X004360Y007257D02*
X008385Y007257D01*
X008385Y007159D02*
X008114Y007159D01*
X011312Y006075D02*
X012080Y006075D01*
X013045Y006700D02*
X013045Y006878D01*
X013150Y006878D01*
X013223Y006878D01*
X013045Y006700D01*
X013045Y006765D02*
X013109Y006765D01*
X013045Y006863D02*
X013208Y006863D01*
X013150Y006878D02*
X013150Y007423D01*
X013150Y007423D01*
X013150Y006878D01*
X013150Y006962D02*
X013150Y006962D01*
X013150Y007060D02*
X013150Y007060D01*
X013150Y007159D02*
X013150Y007159D01*
X013150Y007257D02*
X013150Y007257D01*
X013150Y007356D02*
X013150Y007356D01*
X013150Y007423D02*
X013150Y007969D01*
X013150Y007423D01*
X013150Y007423D01*
X013150Y007454D02*
X013150Y007454D01*
X013150Y007553D02*
X013150Y007553D01*
X013150Y007651D02*
X013150Y007651D01*
X013150Y007750D02*
X013150Y007750D01*
X013150Y007848D02*
X013150Y007848D01*
X013150Y007947D02*
X013150Y007947D01*
X013126Y008045D02*
X013255Y008045D01*
X013675Y008045D02*
X025171Y008045D01*
X025105Y007947D02*
X013675Y007947D01*
X013871Y008144D02*
X016014Y008144D01*
X015823Y008242D02*
X013950Y008242D01*
X013950Y008341D02*
X015724Y008341D01*
X015675Y008439D02*
X013950Y008439D01*
X013950Y008538D02*
X015634Y008538D01*
X015630Y008636D02*
X013950Y008636D01*
X013950Y008735D02*
X015630Y008735D01*
X015663Y008833D02*
X013950Y008833D01*
X013950Y008932D02*
X015704Y008932D01*
X015795Y009030D02*
X013897Y009030D01*
X016286Y008144D02*
X017014Y008144D01*
X016823Y008242D02*
X016477Y008242D01*
X016576Y008341D02*
X016724Y008341D01*
X016675Y008439D02*
X016625Y008439D01*
X017286Y008144D02*
X018014Y008144D01*
X017823Y008242D02*
X017477Y008242D01*
X017576Y008341D02*
X017724Y008341D01*
X017675Y008439D02*
X017625Y008439D01*
X018286Y008144D02*
X019014Y008144D01*
X018823Y008242D02*
X018477Y008242D01*
X018576Y008341D02*
X018724Y008341D01*
X018675Y008439D02*
X018625Y008439D01*
X019286Y008144D02*
X020014Y008144D01*
X019823Y008242D02*
X019477Y008242D01*
X019576Y008341D02*
X019724Y008341D01*
X019675Y008439D02*
X019625Y008439D01*
X020286Y008144D02*
X021014Y008144D01*
X020823Y008242D02*
X020477Y008242D01*
X020576Y008341D02*
X020724Y008341D01*
X020675Y008439D02*
X020625Y008439D01*
X021286Y008144D02*
X022014Y008144D01*
X021823Y008242D02*
X021477Y008242D01*
X021576Y008341D02*
X021724Y008341D01*
X021675Y008439D02*
X021625Y008439D01*
X022286Y008144D02*
X023014Y008144D01*
X022823Y008242D02*
X022477Y008242D01*
X022576Y008341D02*
X022724Y008341D01*
X022675Y008439D02*
X022625Y008439D01*
X023286Y008144D02*
X024014Y008144D01*
X023823Y008242D02*
X023477Y008242D01*
X023576Y008341D02*
X023724Y008341D01*
X023675Y008439D02*
X023625Y008439D01*
X024286Y008144D02*
X025274Y008144D01*
X025466Y008242D02*
X024477Y008242D01*
X024576Y008341D02*
X026450Y008341D01*
X026450Y008439D02*
X024625Y008439D01*
X024666Y008538D02*
X026450Y008538D01*
X026450Y008636D02*
X024670Y008636D01*
X024670Y008735D02*
X026450Y008735D01*
X026434Y008833D02*
X024637Y008833D01*
X024596Y008932D02*
X026385Y008932D01*
X026243Y009030D02*
X024505Y009030D01*
X025600Y008242D02*
X025700Y008242D01*
X025700Y008270D02*
X025700Y007700D01*
X026270Y007700D01*
X026255Y007795D01*
X026225Y007888D01*
X026180Y007975D01*
X026123Y008054D01*
X026054Y008123D01*
X025975Y008180D01*
X025888Y008225D01*
X025795Y008255D01*
X025700Y008270D01*
X025700Y008144D02*
X025600Y008144D01*
X025600Y008045D02*
X025700Y008045D01*
X025700Y007947D02*
X025600Y007947D01*
X025600Y007848D02*
X025700Y007848D01*
X025700Y007750D02*
X025600Y007750D01*
X025600Y007651D02*
X014973Y007651D01*
X014973Y007553D02*
X025038Y007553D01*
X025038Y007750D02*
X014973Y007750D01*
X014906Y007848D02*
X025062Y007848D01*
X025700Y007651D02*
X026450Y007651D01*
X026450Y007553D02*
X026262Y007553D01*
X026238Y007454D02*
X026450Y007454D01*
X026450Y007356D02*
X026196Y007356D01*
X026131Y007257D02*
X026450Y007257D01*
X026450Y007159D02*
X026028Y007159D01*
X026017Y007060D02*
X026450Y007060D01*
X026450Y006962D02*
X026087Y006962D01*
X026133Y006863D02*
X026450Y006863D01*
X026450Y006765D02*
X026160Y006765D01*
X024997Y006371D02*
X024055Y006371D01*
X023956Y006469D02*
X024957Y006469D01*
X024935Y006568D02*
X023858Y006568D01*
X024153Y006272D02*
X025058Y006272D01*
X025151Y006174D02*
X024252Y006174D01*
X024350Y006075D02*
X025313Y006075D01*
X025241Y005977D02*
X024449Y005977D01*
X023625Y004893D02*
X023191Y004893D01*
X022362Y004893D02*
X021558Y004893D01*
X017736Y004893D02*
X017484Y004893D01*
X017535Y004795D02*
X017685Y004795D01*
X016606Y005287D02*
X016541Y005287D01*
X016584Y005386D02*
X016585Y005386D01*
X015433Y005140D02*
X015433Y005140D01*
X017000Y006568D02*
X017100Y006568D01*
X017100Y006666D02*
X017000Y006666D01*
X017000Y006765D02*
X017100Y006765D01*
X017100Y006863D02*
X017000Y006863D01*
X011394Y007848D02*
X004645Y007848D01*
X010670Y001643D02*
X012180Y001643D01*
X012180Y001544D02*
X010669Y001544D01*
X010628Y001446D02*
X012180Y001446D01*
X012189Y001347D02*
X010582Y001347D01*
X024691Y001347D02*
X026363Y001347D01*
X026425Y001446D02*
X024735Y001446D01*
X024761Y001544D02*
X026449Y001544D01*
X026450Y007750D02*
X026262Y007750D01*
X026238Y007848D02*
X026450Y007848D01*
X026450Y007947D02*
X026195Y007947D01*
X026129Y008045D02*
X026450Y008045D01*
X026450Y008144D02*
X026026Y008144D01*
X025834Y008242D02*
X026450Y008242D01*
D23*
X023150Y005900D03*
X020650Y005150D03*
X016290Y005460D03*
X015950Y005770D03*
X016290Y006090D03*
X015950Y006410D03*
X014720Y006750D03*
X014100Y006750D03*
X014400Y006350D03*
X013780Y006350D03*
X012840Y006350D03*
X012200Y006350D03*
X011650Y006150D03*
X011880Y006750D03*
X012520Y006750D03*
X010150Y007040D03*
X009750Y006720D03*
X010150Y006400D03*
X009750Y006090D03*
X010150Y005770D03*
X009750Y004200D03*
X010150Y003880D03*
X009750Y003560D03*
X010150Y003260D03*
X011890Y003550D03*
X012520Y003550D03*
X012830Y003930D03*
X012200Y003930D03*
X013770Y003550D03*
X014400Y003550D03*
X014100Y003930D03*
X014710Y004200D03*
X016130Y004350D03*
X016150Y003650D03*
X015650Y003150D03*
X015120Y002850D03*
X004650Y006150D03*
X011150Y008650D03*
X015150Y007150D03*
M02*
