G75*
G70*
%OFA0B0*%
%FSLAX24Y24*%
%IPPOS*%
%LPD*%
%AMOC8*
5,1,8,0,0,1.08239X$1,22.5*
%
%ADD10C,0.0000*%
%ADD11C,0.0060*%
%ADD12C,0.0050*%
%ADD13C,0.0080*%
%ADD14C,0.0100*%
%ADD15C,0.0160*%
D10*
X001650Y001050D02*
X026150Y001050D01*
X026194Y001052D01*
X026237Y001058D01*
X026279Y001067D01*
X026321Y001080D01*
X026361Y001097D01*
X026400Y001117D01*
X026437Y001140D01*
X026471Y001167D01*
X026504Y001196D01*
X026533Y001229D01*
X026560Y001263D01*
X026583Y001300D01*
X026603Y001339D01*
X026620Y001379D01*
X026633Y001421D01*
X026642Y001463D01*
X026648Y001506D01*
X026650Y001550D01*
X026650Y008750D01*
X026648Y008794D01*
X026642Y008837D01*
X026633Y008879D01*
X026620Y008921D01*
X026603Y008961D01*
X026583Y009000D01*
X026560Y009037D01*
X026533Y009071D01*
X026504Y009104D01*
X026471Y009133D01*
X026437Y009160D01*
X026400Y009183D01*
X026361Y009203D01*
X026321Y009220D01*
X026279Y009233D01*
X026237Y009242D01*
X026194Y009248D01*
X026150Y009250D01*
X001650Y009250D01*
X001606Y009248D01*
X001563Y009242D01*
X001521Y009233D01*
X001479Y009220D01*
X001439Y009203D01*
X001400Y009183D01*
X001363Y009160D01*
X001329Y009133D01*
X001296Y009104D01*
X001267Y009071D01*
X001240Y009037D01*
X001217Y009000D01*
X001197Y008961D01*
X001180Y008921D01*
X001167Y008879D01*
X001158Y008837D01*
X001152Y008794D01*
X001150Y008750D01*
X001150Y001550D01*
X001152Y001506D01*
X001158Y001463D01*
X001167Y001421D01*
X001180Y001379D01*
X001197Y001339D01*
X001217Y001300D01*
X001240Y001263D01*
X001267Y001229D01*
X001296Y001196D01*
X001329Y001167D01*
X001363Y001140D01*
X001400Y001117D01*
X001439Y001097D01*
X001479Y001080D01*
X001521Y001067D01*
X001563Y001058D01*
X001606Y001052D01*
X001650Y001050D01*
D11*
X001628Y002280D02*
X001628Y002620D01*
X001798Y002620D01*
X001854Y002564D01*
X001854Y002450D01*
X001798Y002393D01*
X001628Y002393D01*
X001741Y002393D02*
X001854Y002280D01*
X001996Y002337D02*
X002053Y002280D01*
X002166Y002280D01*
X002223Y002337D01*
X002223Y002393D01*
X002166Y002450D01*
X002053Y002450D01*
X001996Y002507D01*
X001996Y002564D01*
X002053Y002620D01*
X002166Y002620D01*
X002223Y002564D01*
X002364Y002620D02*
X002591Y002620D01*
X002478Y002620D02*
X002478Y002280D01*
X002996Y002337D02*
X002996Y002393D01*
X003053Y002450D01*
X003166Y002450D01*
X003223Y002393D01*
X003223Y002337D01*
X003166Y002280D01*
X003053Y002280D01*
X002996Y002337D01*
X003053Y002450D02*
X002996Y002507D01*
X002996Y002564D01*
X003053Y002620D01*
X003166Y002620D01*
X003223Y002564D01*
X003223Y002507D01*
X003166Y002450D01*
X003996Y002507D02*
X004053Y002450D01*
X004223Y002450D01*
X004223Y002337D02*
X004223Y002564D01*
X004166Y002620D01*
X004053Y002620D01*
X003996Y002564D01*
X003996Y002507D01*
X003996Y002337D02*
X004053Y002280D01*
X004166Y002280D01*
X004223Y002337D01*
X004812Y002280D02*
X005039Y002280D01*
X004925Y002280D02*
X004925Y002620D01*
X004812Y002507D01*
X005180Y002564D02*
X005237Y002620D01*
X005350Y002620D01*
X005407Y002564D01*
X005180Y002337D01*
X005237Y002280D01*
X005350Y002280D01*
X005407Y002337D01*
X005407Y002564D01*
X005180Y002564D02*
X005180Y002337D01*
X005812Y002280D02*
X006039Y002280D01*
X005925Y002280D02*
X005925Y002620D01*
X005812Y002507D01*
X006180Y002507D02*
X006293Y002620D01*
X006293Y002280D01*
X006180Y002280D02*
X006407Y002280D01*
X006812Y002280D02*
X007039Y002280D01*
X006925Y002280D02*
X006925Y002620D01*
X006812Y002507D01*
X007180Y002564D02*
X007237Y002620D01*
X007350Y002620D01*
X007407Y002564D01*
X007407Y002507D01*
X007180Y002280D01*
X007407Y002280D01*
X007812Y002280D02*
X008039Y002280D01*
X007925Y002280D02*
X007925Y002620D01*
X007812Y002507D01*
X008180Y002564D02*
X008237Y002620D01*
X008350Y002620D01*
X008407Y002564D01*
X008407Y002507D01*
X008350Y002450D01*
X008407Y002393D01*
X008407Y002337D01*
X008350Y002280D01*
X008237Y002280D01*
X008180Y002337D01*
X008293Y002450D02*
X008350Y002450D01*
X008812Y002507D02*
X008925Y002620D01*
X008925Y002280D01*
X008812Y002280D02*
X009039Y002280D01*
X009180Y002450D02*
X009407Y002450D01*
X009350Y002280D02*
X009350Y002620D01*
X009180Y002450D01*
X009812Y002507D02*
X009925Y002620D01*
X009925Y002280D01*
X009812Y002280D02*
X010039Y002280D01*
X010180Y002337D02*
X010237Y002280D01*
X010350Y002280D01*
X010407Y002337D01*
X010407Y002450D01*
X010350Y002507D01*
X010293Y002507D01*
X010180Y002450D01*
X010180Y002620D01*
X010407Y002620D01*
X012037Y004620D02*
X012150Y004620D01*
X012207Y004677D01*
X012207Y004960D01*
X012348Y004847D02*
X012462Y004960D01*
X012462Y004620D01*
X012575Y004620D02*
X012348Y004620D01*
X012037Y004620D02*
X011980Y004677D01*
X011980Y004960D01*
X007735Y005030D02*
X007508Y005030D01*
X007622Y005030D02*
X007622Y005370D01*
X007508Y005257D01*
X007367Y005314D02*
X007367Y005370D01*
X007367Y005314D02*
X007253Y005200D01*
X007253Y005030D01*
X007253Y005200D02*
X007140Y005314D01*
X007140Y005370D01*
X001720Y005480D02*
X001720Y005593D01*
X001664Y005650D01*
X001437Y005650D01*
X001380Y005593D01*
X001380Y005480D01*
X001437Y005423D01*
X001437Y005281D02*
X001380Y005225D01*
X001380Y005111D01*
X001437Y005055D01*
X001493Y005055D01*
X001550Y005111D01*
X001550Y005225D01*
X001607Y005281D01*
X001664Y005281D01*
X001720Y005225D01*
X001720Y005111D01*
X001664Y005055D01*
X001720Y004913D02*
X001380Y004913D01*
X001493Y004913D02*
X001493Y004743D01*
X001550Y004686D01*
X001664Y004686D01*
X001720Y004743D01*
X001720Y004913D01*
X001664Y005423D02*
X001720Y005480D01*
X001720Y005782D02*
X001720Y005895D01*
X001720Y005839D02*
X001380Y005839D01*
X001380Y005895D02*
X001380Y005782D01*
X001741Y007680D02*
X001854Y007793D01*
X001854Y008020D01*
X001996Y007964D02*
X001996Y007737D01*
X002053Y007680D01*
X002166Y007680D01*
X002223Y007737D01*
X002364Y007737D02*
X002421Y007680D01*
X002534Y007680D01*
X002591Y007737D01*
X002364Y007737D02*
X002364Y007964D01*
X002421Y008020D01*
X002534Y008020D01*
X002591Y007964D01*
X002996Y008020D02*
X003223Y008020D01*
X003223Y007964D01*
X002996Y007737D01*
X002996Y007680D01*
X002223Y007964D02*
X002166Y008020D01*
X002053Y008020D01*
X001996Y007964D01*
X001628Y008020D02*
X001628Y007793D01*
X001741Y007680D01*
X003996Y007737D02*
X004053Y007680D01*
X004166Y007680D01*
X004223Y007737D01*
X004223Y007793D01*
X004166Y007850D01*
X003996Y007850D01*
X003996Y007737D01*
X003996Y007850D02*
X004109Y007964D01*
X004223Y008020D01*
X004996Y008020D02*
X004996Y007850D01*
X005109Y007907D01*
X005166Y007907D01*
X005223Y007850D01*
X005223Y007737D01*
X005166Y007680D01*
X005053Y007680D01*
X004996Y007737D01*
X004996Y008020D02*
X005223Y008020D01*
X005996Y007850D02*
X006223Y007850D01*
X006166Y007680D02*
X006166Y008020D01*
X005996Y007850D01*
X006996Y007737D02*
X007053Y007680D01*
X007166Y007680D01*
X007223Y007737D01*
X007223Y007793D01*
X007166Y007850D01*
X007109Y007850D01*
X007166Y007850D02*
X007223Y007907D01*
X007223Y007964D01*
X007166Y008020D01*
X007053Y008020D01*
X006996Y007964D01*
X007996Y007964D02*
X008053Y008020D01*
X008166Y008020D01*
X008223Y007964D01*
X008223Y007907D01*
X007996Y007680D01*
X008223Y007680D01*
X008996Y007680D02*
X009223Y007680D01*
X009109Y007680D02*
X009109Y008020D01*
X008996Y007907D01*
X009996Y007964D02*
X009996Y007737D01*
X010223Y007964D01*
X010223Y007737D01*
X010166Y007680D01*
X010053Y007680D01*
X009996Y007737D01*
X009996Y007964D02*
X010053Y008020D01*
X010166Y008020D01*
X010223Y007964D01*
X015812Y007907D02*
X015812Y007680D01*
X016039Y007680D02*
X016039Y007907D01*
X015925Y008020D01*
X015812Y007907D01*
X015812Y007850D02*
X016039Y007850D01*
X016180Y007737D02*
X016407Y007964D01*
X016407Y007737D01*
X016350Y007680D01*
X016237Y007680D01*
X016180Y007737D01*
X016180Y007964D01*
X016237Y008020D01*
X016350Y008020D01*
X016407Y007964D01*
X016812Y007907D02*
X016925Y008020D01*
X017039Y007907D01*
X017039Y007680D01*
X017180Y007680D02*
X017407Y007680D01*
X017293Y007680D02*
X017293Y008020D01*
X017180Y007907D01*
X017039Y007850D02*
X016812Y007850D01*
X016812Y007907D02*
X016812Y007680D01*
X017812Y007680D02*
X017812Y007907D01*
X017925Y008020D01*
X018039Y007907D01*
X018039Y007680D01*
X018180Y007680D02*
X018407Y007907D01*
X018407Y007964D01*
X018350Y008020D01*
X018237Y008020D01*
X018180Y007964D01*
X018039Y007850D02*
X017812Y007850D01*
X018180Y007680D02*
X018407Y007680D01*
X018812Y007680D02*
X018812Y007907D01*
X018925Y008020D01*
X019039Y007907D01*
X019039Y007680D01*
X019180Y007737D02*
X019237Y007680D01*
X019350Y007680D01*
X019407Y007737D01*
X019407Y007793D01*
X019350Y007850D01*
X019293Y007850D01*
X019350Y007850D02*
X019407Y007907D01*
X019407Y007964D01*
X019350Y008020D01*
X019237Y008020D01*
X019180Y007964D01*
X019039Y007850D02*
X018812Y007850D01*
X019812Y007850D02*
X020039Y007850D01*
X020039Y007907D02*
X020039Y007680D01*
X019812Y007680D02*
X019812Y007907D01*
X019925Y008020D01*
X020039Y007907D01*
X020180Y007850D02*
X020350Y008020D01*
X020350Y007680D01*
X020407Y007850D02*
X020180Y007850D01*
X020812Y007850D02*
X021039Y007850D01*
X021039Y007907D02*
X021039Y007680D01*
X021180Y007737D02*
X021237Y007680D01*
X021350Y007680D01*
X021407Y007737D01*
X021407Y007850D01*
X021350Y007907D01*
X021293Y007907D01*
X021180Y007850D01*
X021180Y008020D01*
X021407Y008020D01*
X021039Y007907D02*
X020925Y008020D01*
X020812Y007907D01*
X020812Y007680D01*
X021812Y007680D02*
X021812Y007907D01*
X021925Y008020D01*
X022039Y007907D01*
X022039Y007680D01*
X022180Y007737D02*
X022237Y007680D01*
X022350Y007680D01*
X022407Y007737D01*
X022407Y007793D01*
X022350Y007850D01*
X022180Y007850D01*
X022180Y007737D01*
X022180Y007850D02*
X022293Y007964D01*
X022407Y008020D01*
X022812Y007907D02*
X022925Y008020D01*
X023039Y007907D01*
X023039Y007680D01*
X023180Y007680D02*
X023180Y007737D01*
X023407Y007964D01*
X023407Y008020D01*
X023180Y008020D01*
X023039Y007850D02*
X022812Y007850D01*
X022812Y007907D02*
X022812Y007680D01*
X022039Y007850D02*
X021812Y007850D01*
X024480Y006823D02*
X024480Y006710D01*
X024480Y006766D02*
X024820Y006766D01*
X024820Y006710D02*
X024820Y006823D01*
X024763Y006568D02*
X024536Y006568D01*
X024480Y006512D01*
X024480Y006341D01*
X024820Y006341D01*
X024820Y006512D01*
X024763Y006568D01*
X024480Y006200D02*
X024480Y005973D01*
X024480Y005832D02*
X024480Y005605D01*
X024820Y005605D01*
X024650Y005605D02*
X024650Y005718D01*
X024820Y006087D02*
X024480Y006087D01*
X019160Y006430D02*
X019020Y006400D01*
X018960Y006270D01*
X019050Y006140D01*
X018960Y006050D01*
X018840Y006130D01*
X018780Y006100D01*
X018690Y006330D01*
X018530Y006330D02*
X018430Y006100D01*
X018380Y006130D01*
X018260Y006050D01*
X018170Y006140D01*
X018250Y006270D01*
X018200Y006400D01*
X018050Y006430D01*
X018050Y006560D01*
X018200Y006580D01*
X018260Y006710D01*
X018170Y006840D01*
X018260Y006930D01*
X018390Y006840D01*
X018510Y006890D01*
X018540Y007050D01*
X018670Y007050D01*
X018700Y006890D01*
X018820Y006840D01*
X018960Y006930D01*
X019050Y006840D01*
X018960Y006710D01*
X019010Y006590D01*
X019160Y006560D01*
X019160Y006430D01*
X018690Y006330D02*
X018712Y006343D01*
X018732Y006359D01*
X018750Y006378D01*
X018765Y006400D01*
X018776Y006423D01*
X018784Y006448D01*
X018788Y006473D01*
X018789Y006499D01*
X018786Y006525D01*
X018779Y006550D01*
X018768Y006573D01*
X018755Y006595D01*
X018738Y006615D01*
X018719Y006632D01*
X018697Y006647D01*
X018673Y006657D01*
X018649Y006665D01*
X018623Y006669D01*
X018597Y006669D01*
X018571Y006665D01*
X018547Y006657D01*
X018523Y006647D01*
X018501Y006632D01*
X018482Y006615D01*
X018465Y006595D01*
X018452Y006573D01*
X018441Y006550D01*
X018434Y006525D01*
X018431Y006499D01*
X018432Y006473D01*
X018436Y006448D01*
X018444Y006423D01*
X018455Y006400D01*
X018470Y006378D01*
X018488Y006359D01*
X018508Y006343D01*
X018530Y006330D01*
X025128Y008380D02*
X025128Y008720D01*
X025298Y008720D01*
X025354Y008664D01*
X025354Y008607D01*
X025298Y008550D01*
X025128Y008550D01*
X025298Y008550D02*
X025354Y008493D01*
X025354Y008437D01*
X025298Y008380D01*
X025128Y008380D01*
X025496Y008380D02*
X025723Y008380D01*
X025864Y008380D02*
X025864Y008720D01*
X025921Y008550D02*
X026091Y008380D01*
X025864Y008493D02*
X026091Y008720D01*
X025496Y008720D02*
X025496Y008380D01*
X022789Y003360D02*
X022562Y003360D01*
X022676Y003360D02*
X022676Y003020D01*
X022421Y003020D02*
X022194Y003020D01*
X022194Y003360D01*
X022421Y003360D01*
X022308Y003190D02*
X022194Y003190D01*
X022053Y003133D02*
X022053Y003077D01*
X021996Y003020D01*
X021883Y003020D01*
X021826Y003077D01*
X021883Y003190D02*
X021996Y003190D01*
X022053Y003133D01*
X021883Y003190D02*
X021826Y003247D01*
X021826Y003304D01*
X021883Y003360D01*
X021996Y003360D01*
X022053Y003304D01*
X021684Y003360D02*
X021458Y003360D01*
X021458Y003020D01*
X021684Y003020D01*
X021571Y003190D02*
X021458Y003190D01*
X021316Y003190D02*
X021259Y003133D01*
X021089Y003133D01*
X021089Y003020D02*
X021089Y003360D01*
X021259Y003360D01*
X021316Y003304D01*
X021316Y003190D01*
X021203Y003133D02*
X021316Y003020D01*
X021293Y002620D02*
X021293Y002280D01*
X021180Y002280D02*
X021407Y002280D01*
X021039Y002280D02*
X020812Y002280D01*
X021039Y002507D01*
X021039Y002564D01*
X020982Y002620D01*
X020868Y002620D01*
X020812Y002564D01*
X021180Y002507D02*
X021293Y002620D01*
X021812Y002564D02*
X021868Y002620D01*
X021982Y002620D01*
X022039Y002564D01*
X022039Y002507D01*
X021812Y002280D01*
X022039Y002280D01*
X022180Y002280D02*
X022407Y002507D01*
X022407Y002564D01*
X022350Y002620D01*
X022237Y002620D01*
X022180Y002564D01*
X022180Y002280D02*
X022407Y002280D01*
X022812Y002280D02*
X023039Y002507D01*
X023039Y002564D01*
X022982Y002620D01*
X022868Y002620D01*
X022812Y002564D01*
X023180Y002564D02*
X023237Y002620D01*
X023350Y002620D01*
X023407Y002564D01*
X023407Y002507D01*
X023350Y002450D01*
X023407Y002393D01*
X023407Y002337D01*
X023350Y002280D01*
X023237Y002280D01*
X023180Y002337D01*
X023039Y002280D02*
X022812Y002280D01*
X023293Y002450D02*
X023350Y002450D01*
X023628Y002337D02*
X023684Y002280D01*
X023798Y002280D01*
X023854Y002337D01*
X023854Y002450D01*
X023741Y002450D01*
X023628Y002337D02*
X023628Y002564D01*
X023684Y002620D01*
X023798Y002620D01*
X023854Y002564D01*
X023996Y002620D02*
X024223Y002280D01*
X024223Y002620D01*
X024364Y002620D02*
X024534Y002620D01*
X024591Y002564D01*
X024591Y002337D01*
X024534Y002280D01*
X024364Y002280D01*
X024364Y002620D01*
X023996Y002620D02*
X023996Y002280D01*
X025128Y001864D02*
X025128Y001637D01*
X025184Y001580D01*
X025298Y001580D01*
X025354Y001637D01*
X025354Y001750D01*
X025241Y001750D01*
X025496Y001693D02*
X025666Y001693D01*
X025723Y001750D01*
X025723Y001864D01*
X025666Y001920D01*
X025496Y001920D01*
X025496Y001580D01*
X025609Y001693D02*
X025723Y001580D01*
X025864Y001580D02*
X025864Y001920D01*
X026091Y001580D01*
X026091Y001920D01*
X025354Y001864D02*
X025298Y001920D01*
X025184Y001920D01*
X025128Y001864D01*
X020407Y002337D02*
X020350Y002280D01*
X020237Y002280D01*
X020180Y002337D01*
X020407Y002564D01*
X020407Y002337D01*
X020180Y002337D02*
X020180Y002564D01*
X020237Y002620D01*
X020350Y002620D01*
X020407Y002564D01*
X020039Y002564D02*
X019982Y002620D01*
X019868Y002620D01*
X019812Y002564D01*
X020039Y002564D02*
X020039Y002507D01*
X019812Y002280D01*
X020039Y002280D01*
X019407Y002337D02*
X019407Y002564D01*
X019350Y002620D01*
X019237Y002620D01*
X019180Y002564D01*
X019180Y002507D01*
X019237Y002450D01*
X019407Y002450D01*
X019407Y002337D02*
X019350Y002280D01*
X019237Y002280D01*
X019180Y002337D01*
X019039Y002280D02*
X018812Y002280D01*
X018925Y002280D02*
X018925Y002620D01*
X018812Y002507D01*
X018407Y002507D02*
X018350Y002450D01*
X018237Y002450D01*
X018180Y002507D01*
X018180Y002564D01*
X018237Y002620D01*
X018350Y002620D01*
X018407Y002564D01*
X018407Y002507D01*
X018350Y002450D02*
X018407Y002393D01*
X018407Y002337D01*
X018350Y002280D01*
X018237Y002280D01*
X018180Y002337D01*
X018180Y002393D01*
X018237Y002450D01*
X018039Y002280D02*
X017812Y002280D01*
X017925Y002280D02*
X017925Y002620D01*
X017812Y002507D01*
X017407Y002564D02*
X017407Y002620D01*
X017180Y002620D01*
X017407Y002564D02*
X017180Y002337D01*
X017180Y002280D01*
X017039Y002280D02*
X016812Y002280D01*
X016925Y002280D02*
X016925Y002620D01*
X016812Y002507D01*
X016407Y002620D02*
X016293Y002564D01*
X016180Y002450D01*
X016350Y002450D01*
X016407Y002393D01*
X016407Y002337D01*
X016350Y002280D01*
X016237Y002280D01*
X016180Y002337D01*
X016180Y002450D01*
X016039Y002280D02*
X015812Y002280D01*
X015925Y002280D02*
X015925Y002620D01*
X015812Y002507D01*
D12*
X015586Y002345D02*
X015406Y002345D01*
X015304Y002255D02*
X015259Y002255D01*
X015259Y002210D01*
X015304Y002210D01*
X015304Y002255D01*
X015304Y002120D02*
X015259Y002120D01*
X015259Y002075D01*
X015304Y002075D01*
X015304Y002120D01*
X015406Y002120D02*
X015406Y002075D01*
X015406Y002120D02*
X015586Y002300D01*
X015586Y002345D01*
X015144Y002300D02*
X015144Y002120D01*
X015099Y002075D01*
X015009Y002075D01*
X014964Y002120D01*
X015144Y002300D01*
X015099Y002345D01*
X015009Y002345D01*
X014964Y002300D01*
X014964Y002120D01*
X014850Y002120D02*
X014805Y002075D01*
X014715Y002075D01*
X014670Y002120D01*
X014670Y002300D01*
X014715Y002345D01*
X014805Y002345D01*
X014850Y002300D01*
X014555Y002300D02*
X014555Y002210D01*
X014510Y002165D01*
X014375Y002165D01*
X014375Y002075D02*
X014375Y002345D01*
X014510Y002345D01*
X014555Y002300D01*
X013860Y002209D02*
X013860Y001251D01*
X012260Y001251D01*
X012260Y002209D01*
X013860Y002209D01*
X014039Y001749D02*
X013994Y001704D01*
X013994Y001614D01*
X014039Y001569D01*
X014039Y001455D02*
X013994Y001410D01*
X013994Y001319D01*
X014039Y001274D01*
X014219Y001274D01*
X014264Y001319D01*
X014264Y001410D01*
X014219Y001455D01*
X014264Y001569D02*
X014084Y001749D01*
X014039Y001749D01*
X014264Y001749D02*
X014264Y001569D01*
X011986Y002300D02*
X011806Y002120D01*
X011806Y002075D01*
X011704Y002075D02*
X011659Y002075D01*
X011659Y002120D01*
X011704Y002120D01*
X011704Y002075D01*
X011704Y002210D02*
X011659Y002210D01*
X011659Y002255D01*
X011704Y002255D01*
X011704Y002210D01*
X011806Y002345D02*
X011986Y002345D01*
X011986Y002300D01*
X011544Y002300D02*
X011364Y002120D01*
X011409Y002075D01*
X011499Y002075D01*
X011544Y002120D01*
X011544Y002300D01*
X011499Y002345D01*
X011409Y002345D01*
X011364Y002300D01*
X011364Y002120D01*
X011250Y002120D02*
X011250Y002300D01*
X011205Y002345D01*
X011070Y002345D01*
X011070Y002075D01*
X011205Y002075D01*
X011250Y002120D01*
X010955Y002210D02*
X010910Y002165D01*
X010775Y002165D01*
X010775Y002075D02*
X010775Y002345D01*
X010910Y002345D01*
X010955Y002300D01*
X010955Y002210D01*
X008066Y003595D02*
X006794Y003595D01*
X006459Y003510D02*
X005501Y003510D01*
X005501Y005110D01*
X006459Y005110D01*
X006459Y003510D01*
X006544Y003845D02*
X006544Y006495D01*
X006546Y006525D01*
X006551Y006555D01*
X006560Y006584D01*
X006573Y006611D01*
X006588Y006637D01*
X006607Y006661D01*
X006628Y006682D01*
X006652Y006701D01*
X006678Y006716D01*
X006705Y006729D01*
X006734Y006738D01*
X006764Y006743D01*
X006794Y006745D01*
X008066Y006745D01*
X008096Y006743D01*
X008126Y006738D01*
X008155Y006729D01*
X008182Y006716D01*
X008208Y006701D01*
X008232Y006682D01*
X008253Y006661D01*
X008272Y006637D01*
X008287Y006611D01*
X008300Y006584D01*
X008309Y006555D01*
X008314Y006525D01*
X008316Y006495D01*
X008316Y003845D01*
X008314Y003815D01*
X008309Y003785D01*
X008300Y003756D01*
X008287Y003729D01*
X008272Y003703D01*
X008253Y003679D01*
X008232Y003658D01*
X008208Y003639D01*
X008182Y003624D01*
X008155Y003611D01*
X008126Y003602D01*
X008096Y003597D01*
X008066Y003595D01*
X006794Y003595D02*
X006764Y003597D01*
X006734Y003602D01*
X006705Y003611D01*
X006678Y003624D01*
X006652Y003639D01*
X006628Y003658D01*
X006607Y003679D01*
X006588Y003703D01*
X006573Y003729D01*
X006560Y003756D01*
X006551Y003785D01*
X006546Y003815D01*
X006544Y003845D01*
X005150Y003729D02*
X005150Y002771D01*
X003550Y002771D01*
X003550Y003729D01*
X005150Y003729D01*
X004159Y003866D02*
X003979Y003866D01*
X004159Y004046D01*
X004159Y004091D01*
X004114Y004136D01*
X004024Y004136D01*
X003979Y004091D01*
X003865Y004091D02*
X003865Y004001D01*
X003820Y003956D01*
X003684Y003956D01*
X003684Y003866D02*
X003684Y004136D01*
X003820Y004136D01*
X003865Y004091D01*
X003775Y003956D02*
X003865Y003866D01*
X003459Y003866D02*
X003279Y003866D01*
X003459Y004046D01*
X003459Y004091D01*
X003414Y004136D01*
X003324Y004136D01*
X003279Y004091D01*
X003165Y004091D02*
X003120Y004136D01*
X002984Y004136D01*
X002984Y003866D01*
X003120Y003866D01*
X003165Y003911D01*
X003165Y004091D01*
X003450Y003729D02*
X003450Y002771D01*
X001850Y002771D01*
X001850Y003729D01*
X003450Y003729D01*
X005104Y004499D02*
X005149Y004454D01*
X005329Y004454D01*
X005374Y004499D01*
X005374Y004590D01*
X005329Y004635D01*
X005329Y004749D02*
X005284Y004749D01*
X005239Y004794D01*
X005239Y004884D01*
X005284Y004929D01*
X005329Y004929D01*
X005374Y004884D01*
X005374Y004794D01*
X005329Y004749D01*
X005239Y004794D02*
X005194Y004749D01*
X005149Y004749D01*
X005104Y004794D01*
X005104Y004884D01*
X005149Y004929D01*
X005194Y004929D01*
X005239Y004884D01*
X005149Y004635D02*
X005104Y004590D01*
X005104Y004499D01*
X005501Y005170D02*
X005501Y006770D01*
X006459Y006770D01*
X006459Y005170D01*
X005501Y005170D01*
X005309Y005434D02*
X005354Y005479D01*
X005354Y005570D01*
X005309Y005615D01*
X005309Y005729D02*
X005354Y005729D01*
X005309Y005729D02*
X005129Y005909D01*
X005084Y005909D01*
X005084Y005729D01*
X005129Y005615D02*
X005084Y005570D01*
X005084Y005479D01*
X005129Y005434D01*
X005309Y005434D01*
X008471Y005890D02*
X009429Y005890D01*
X009429Y007490D01*
X008471Y007490D01*
X008471Y005890D01*
X009314Y005709D02*
X009584Y005709D01*
X009584Y005619D02*
X009584Y005799D01*
X009404Y005619D02*
X009314Y005709D01*
X009359Y005505D02*
X009314Y005460D01*
X009314Y005369D01*
X009359Y005324D01*
X009539Y005324D01*
X009584Y005369D01*
X009584Y005460D01*
X009539Y005505D01*
X016194Y005004D02*
X016329Y004869D01*
X016329Y005049D01*
X016464Y005004D02*
X016194Y005004D01*
X016591Y004950D02*
X017549Y004950D01*
X017549Y003350D01*
X016591Y003350D01*
X016591Y004950D01*
X016571Y005200D02*
X017529Y005200D01*
X017529Y006800D01*
X016571Y006800D01*
X016571Y005200D01*
X016419Y004755D02*
X016464Y004710D01*
X016464Y004619D01*
X016419Y004574D01*
X016239Y004574D01*
X016194Y004619D01*
X016194Y004710D01*
X016239Y004755D01*
X017671Y004950D02*
X018629Y004950D01*
X018629Y003350D01*
X017671Y003350D01*
X017671Y004950D01*
X017944Y005156D02*
X018125Y005156D01*
X018239Y005156D02*
X018419Y005156D01*
X018329Y005156D02*
X018329Y005426D01*
X018239Y005336D01*
X017944Y005426D02*
X017944Y005156D01*
X018910Y005450D02*
X020210Y005450D01*
X020210Y003350D01*
X018910Y003350D01*
X018910Y005450D01*
X019285Y005680D02*
X019330Y005635D01*
X019420Y005635D01*
X019465Y005680D01*
X019580Y005680D02*
X019625Y005635D01*
X019715Y005635D01*
X019760Y005680D01*
X019760Y005725D01*
X019715Y005770D01*
X019580Y005770D01*
X019580Y005680D01*
X019580Y005770D02*
X019670Y005860D01*
X019760Y005905D01*
X019465Y005860D02*
X019420Y005905D01*
X019330Y005905D01*
X019285Y005860D01*
X019285Y005680D01*
X020534Y005986D02*
X020534Y006256D01*
X020670Y006256D01*
X020715Y006211D01*
X020715Y006121D01*
X020670Y006076D01*
X020534Y006076D01*
X020625Y006076D02*
X020715Y005986D01*
X020829Y005986D02*
X021009Y005986D01*
X020919Y005986D02*
X020919Y006256D01*
X020829Y006166D01*
X021140Y006399D02*
X021140Y005441D01*
X022740Y005441D01*
X022740Y006399D01*
X021140Y006399D01*
X021021Y006639D02*
X020841Y006639D01*
X020931Y006639D02*
X020931Y006910D01*
X020841Y006819D01*
X020726Y006865D02*
X020681Y006910D01*
X020546Y006910D01*
X020546Y006639D01*
X020681Y006639D01*
X020726Y006684D01*
X020726Y006865D01*
X021565Y007046D02*
X021565Y006534D01*
X022235Y006534D01*
X022235Y007046D01*
X021565Y007046D01*
X022018Y007026D02*
X022018Y006554D01*
X022057Y006554D01*
X022057Y007026D01*
X023686Y007715D02*
X023686Y007895D01*
X023776Y007985D01*
X023866Y007895D01*
X023866Y007715D01*
X023980Y007715D02*
X023980Y007985D01*
X024115Y007985D01*
X024161Y007940D01*
X024161Y007850D01*
X024115Y007805D01*
X023980Y007805D01*
X024070Y007805D02*
X024161Y007715D01*
X024275Y007715D02*
X024455Y007715D01*
X024570Y007715D02*
X024570Y007985D01*
X024750Y007985D01*
X024660Y007850D02*
X024570Y007850D01*
X024455Y007985D02*
X024275Y007985D01*
X024275Y007715D01*
X024275Y007850D02*
X024365Y007850D01*
X023866Y007850D02*
X023686Y007850D01*
X023600Y005556D02*
X023509Y005556D01*
X023464Y005511D01*
X023464Y005331D01*
X023509Y005286D01*
X023600Y005286D01*
X023645Y005331D01*
X023759Y005331D02*
X023804Y005286D01*
X023894Y005286D01*
X023939Y005331D01*
X023939Y005511D01*
X023894Y005556D01*
X023804Y005556D01*
X023759Y005511D01*
X023759Y005466D01*
X023804Y005421D01*
X023939Y005421D01*
X023645Y005511D02*
X023600Y005556D01*
X023611Y005140D02*
X024569Y005140D01*
X024569Y003540D01*
X023611Y003540D01*
X023611Y005140D01*
X022866Y004810D02*
X022866Y003550D01*
X021054Y003550D01*
X021054Y004810D01*
X022866Y004810D01*
X022157Y004574D02*
X021763Y004574D01*
X021724Y004572D01*
X021686Y004566D01*
X021649Y004557D01*
X021612Y004544D01*
X021577Y004527D01*
X021544Y004508D01*
X021513Y004485D01*
X021484Y004459D01*
X021458Y004430D01*
X021435Y004399D01*
X021416Y004366D01*
X021399Y004331D01*
X021386Y004294D01*
X021377Y004257D01*
X021371Y004219D01*
X021369Y004180D01*
X021371Y004141D01*
X021377Y004103D01*
X021386Y004066D01*
X021399Y004029D01*
X021416Y003994D01*
X021435Y003961D01*
X021458Y003930D01*
X021484Y003901D01*
X021513Y003875D01*
X021544Y003852D01*
X021577Y003833D01*
X021612Y003816D01*
X021649Y003803D01*
X021686Y003794D01*
X021724Y003788D01*
X021763Y003786D01*
X022157Y003786D01*
X022196Y003788D01*
X022234Y003794D01*
X022271Y003803D01*
X022308Y003816D01*
X022343Y003833D01*
X022376Y003852D01*
X022407Y003875D01*
X022436Y003901D01*
X022462Y003930D01*
X022485Y003961D01*
X022504Y003994D01*
X022521Y004029D01*
X022534Y004066D01*
X022543Y004103D01*
X022549Y004141D01*
X022551Y004180D01*
X022549Y004219D01*
X022543Y004257D01*
X022534Y004294D01*
X022521Y004331D01*
X022504Y004366D01*
X022485Y004399D01*
X022462Y004430D01*
X022436Y004459D01*
X022407Y004485D01*
X022376Y004508D01*
X022343Y004527D01*
X022308Y004544D01*
X022271Y004557D01*
X022234Y004566D01*
X022196Y004572D01*
X022157Y004574D01*
X016444Y006559D02*
X016444Y006650D01*
X016399Y006695D01*
X016399Y006809D02*
X016444Y006854D01*
X016444Y006944D01*
X016399Y006989D01*
X016309Y006989D01*
X016264Y006944D01*
X016264Y006899D01*
X016309Y006809D01*
X016174Y006809D01*
X016174Y006989D01*
X016219Y006695D02*
X016174Y006650D01*
X016174Y006559D01*
X016219Y006514D01*
X016399Y006514D01*
X016444Y006559D01*
X015306Y008075D02*
X015306Y008120D01*
X015486Y008300D01*
X015486Y008345D01*
X015306Y008345D01*
X015204Y008255D02*
X015204Y008210D01*
X015159Y008210D01*
X015159Y008255D01*
X015204Y008255D01*
X015044Y008300D02*
X014864Y008120D01*
X014909Y008075D01*
X014999Y008075D01*
X015044Y008120D01*
X015044Y008300D01*
X014999Y008345D01*
X014909Y008345D01*
X014864Y008300D01*
X014864Y008120D01*
X014750Y008075D02*
X014750Y008255D01*
X014660Y008345D01*
X014570Y008255D01*
X014570Y008075D01*
X014570Y008210D02*
X014750Y008210D01*
X014455Y008210D02*
X014455Y008300D01*
X014410Y008345D01*
X014275Y008345D01*
X014275Y008075D01*
X014275Y008165D02*
X014410Y008165D01*
X014455Y008210D01*
X013970Y008121D02*
X013970Y009079D01*
X012370Y009079D01*
X012370Y008121D01*
X013970Y008121D01*
X015159Y008075D02*
X015159Y008120D01*
X015204Y008120D01*
X015204Y008075D01*
X015159Y008075D01*
X012234Y008669D02*
X012189Y008624D01*
X012009Y008624D01*
X011964Y008669D01*
X011964Y008760D01*
X012009Y008805D01*
X012009Y008919D02*
X011964Y008964D01*
X011964Y009054D01*
X012009Y009099D01*
X012054Y009099D01*
X012099Y009054D01*
X012144Y009099D01*
X012189Y009099D01*
X012234Y009054D01*
X012234Y008964D01*
X012189Y008919D01*
X012189Y008805D02*
X012234Y008760D01*
X012234Y008669D01*
X012099Y009009D02*
X012099Y009054D01*
X011941Y008345D02*
X011851Y008345D01*
X011806Y008300D01*
X011806Y008120D01*
X011986Y008300D01*
X011986Y008120D01*
X011941Y008075D01*
X011851Y008075D01*
X011806Y008120D01*
X011704Y008120D02*
X011704Y008075D01*
X011659Y008075D01*
X011659Y008120D01*
X011704Y008120D01*
X011704Y008210D02*
X011659Y008210D01*
X011659Y008255D01*
X011704Y008255D01*
X011704Y008210D01*
X011544Y008300D02*
X011364Y008120D01*
X011364Y008075D01*
X011250Y008120D02*
X011250Y008165D01*
X011205Y008210D01*
X011070Y008210D01*
X010955Y008210D02*
X010955Y008300D01*
X010910Y008345D01*
X010775Y008345D01*
X010775Y008075D01*
X010775Y008165D02*
X010910Y008165D01*
X010955Y008210D01*
X011070Y008075D02*
X011205Y008075D01*
X011250Y008120D01*
X011205Y008210D02*
X011250Y008255D01*
X011250Y008300D01*
X011205Y008345D01*
X011070Y008345D01*
X011070Y008075D01*
X011544Y008300D02*
X011544Y008345D01*
X011364Y008345D01*
X011941Y008345D02*
X011986Y008300D01*
D13*
X010650Y008400D02*
X010650Y008900D01*
X010400Y009150D01*
X009900Y009150D01*
X009650Y008900D01*
X009400Y009150D01*
X008900Y009150D01*
X008650Y008900D01*
X008400Y009150D01*
X007900Y009150D01*
X007650Y008900D01*
X007400Y009150D01*
X006900Y009150D01*
X006650Y008900D01*
X006400Y009150D01*
X005900Y009150D01*
X005650Y008900D01*
X005400Y009150D01*
X004900Y009150D01*
X004650Y008900D01*
X004400Y009150D01*
X003900Y009150D01*
X003650Y008900D01*
X003400Y009150D01*
X002900Y009150D01*
X002650Y008900D01*
X002400Y009150D01*
X001900Y009150D01*
X001650Y008900D01*
X001650Y008400D01*
X001900Y008150D01*
X002400Y008150D01*
X002650Y008400D01*
X002900Y008150D01*
X003400Y008150D01*
X003650Y008400D01*
X003900Y008150D01*
X004400Y008150D01*
X004650Y008400D01*
X004900Y008150D01*
X005400Y008150D01*
X005650Y008400D01*
X005900Y008150D01*
X006400Y008150D01*
X006650Y008400D01*
X006900Y008150D01*
X007400Y008150D01*
X007650Y008400D01*
X007900Y008150D01*
X008400Y008150D01*
X008650Y008400D01*
X008900Y008150D01*
X009400Y008150D01*
X009650Y008400D01*
X009900Y008150D01*
X010400Y008150D01*
X010650Y008400D01*
X011418Y007030D02*
X014882Y007030D01*
X015040Y006872D01*
X015040Y003408D01*
X014882Y003250D01*
X011418Y003250D01*
X011260Y003408D01*
X011260Y006872D01*
X011418Y007030D01*
X015650Y008400D02*
X015900Y008150D01*
X016400Y008150D01*
X016650Y008400D01*
X016900Y008150D01*
X017400Y008150D01*
X017650Y008400D01*
X017900Y008150D01*
X018400Y008150D01*
X018650Y008400D01*
X018900Y008150D01*
X019400Y008150D01*
X019650Y008400D01*
X019900Y008150D01*
X020400Y008150D01*
X020650Y008400D01*
X020900Y008150D01*
X021400Y008150D01*
X021650Y008400D01*
X021900Y008150D01*
X022400Y008150D01*
X022650Y008400D01*
X022900Y008150D01*
X023400Y008150D01*
X023650Y008400D01*
X023900Y008150D01*
X024400Y008150D01*
X024650Y008400D01*
X024650Y008900D01*
X024400Y009150D01*
X023900Y009150D01*
X023650Y008900D01*
X023400Y009150D01*
X022900Y009150D01*
X022650Y008900D01*
X022400Y009150D01*
X021900Y009150D01*
X021650Y008900D01*
X021400Y009150D01*
X020900Y009150D01*
X020650Y008900D01*
X020400Y009150D01*
X019900Y009150D01*
X019650Y008900D01*
X019400Y009150D01*
X018900Y009150D01*
X018650Y008900D01*
X018400Y009150D01*
X017900Y009150D01*
X017650Y008900D01*
X017400Y009150D01*
X016900Y009150D01*
X016650Y008900D01*
X016400Y009150D01*
X015900Y009150D01*
X015650Y008900D01*
X015650Y008400D01*
X021750Y007440D02*
X021750Y007140D01*
X022050Y007290D01*
X021750Y007440D01*
X022050Y007440D02*
X022050Y007290D01*
X022050Y007140D01*
X025100Y006900D02*
X025100Y006400D01*
X025350Y006150D01*
X025850Y006150D01*
X026100Y005900D01*
X026100Y005400D01*
X025850Y005150D01*
X025350Y005150D01*
X025100Y005400D01*
X025100Y005900D01*
X025350Y006150D01*
X025850Y006150D02*
X026100Y006400D01*
X026100Y006900D01*
X025850Y007150D01*
X025350Y007150D01*
X025100Y007400D01*
X025100Y007900D01*
X025350Y008150D01*
X025850Y008150D01*
X026100Y007900D01*
X026100Y007400D01*
X025850Y007150D01*
X025350Y007150D02*
X025100Y006900D01*
X025350Y005150D02*
X025100Y004900D01*
X025100Y004400D01*
X025350Y004150D01*
X025850Y004150D01*
X026100Y003900D01*
X026100Y003400D01*
X025850Y003150D01*
X025350Y003150D01*
X025100Y003400D01*
X025100Y003900D01*
X025350Y004150D01*
X025850Y004150D02*
X026100Y004400D01*
X026100Y004900D01*
X025850Y005150D01*
X025850Y003150D02*
X026100Y002900D01*
X026100Y002400D01*
X025850Y002150D01*
X025350Y002150D01*
X025100Y002400D01*
X025100Y002900D01*
X025350Y003150D01*
X024400Y002150D02*
X023900Y002150D01*
X023650Y001900D01*
X023400Y002150D01*
X022900Y002150D01*
X022650Y001900D01*
X022400Y002150D01*
X021900Y002150D01*
X021650Y001900D01*
X021400Y002150D01*
X020900Y002150D01*
X020650Y001900D01*
X020400Y002150D01*
X019900Y002150D01*
X019650Y001900D01*
X019400Y002150D01*
X018900Y002150D01*
X018650Y001900D01*
X018400Y002150D01*
X017900Y002150D01*
X017650Y001900D01*
X017400Y002150D01*
X016900Y002150D01*
X016650Y001900D01*
X016400Y002150D01*
X015900Y002150D01*
X015650Y001900D01*
X015650Y001400D01*
X015900Y001150D01*
X016400Y001150D01*
X016650Y001400D01*
X016900Y001150D01*
X017400Y001150D01*
X017650Y001400D01*
X017900Y001150D01*
X018400Y001150D01*
X018650Y001400D01*
X018900Y001150D01*
X019400Y001150D01*
X019650Y001400D01*
X019900Y001150D01*
X020400Y001150D01*
X020650Y001400D01*
X020900Y001150D01*
X021400Y001150D01*
X021650Y001400D01*
X021900Y001150D01*
X022400Y001150D01*
X022650Y001400D01*
X022900Y001150D01*
X023400Y001150D01*
X023650Y001400D01*
X023900Y001150D01*
X024400Y001150D01*
X024650Y001400D01*
X024650Y001900D01*
X024400Y002150D01*
X010650Y001900D02*
X010650Y001400D01*
X010400Y001150D01*
X009900Y001150D01*
X009650Y001400D01*
X009400Y001150D01*
X008900Y001150D01*
X008650Y001400D01*
X008400Y001150D01*
X007900Y001150D01*
X007650Y001400D01*
X007400Y001150D01*
X006900Y001150D01*
X006650Y001400D01*
X006400Y001150D01*
X005900Y001150D01*
X005650Y001400D01*
X005400Y001150D01*
X004900Y001150D01*
X004650Y001400D01*
X004400Y001150D01*
X003900Y001150D01*
X003650Y001400D01*
X003400Y001150D01*
X002900Y001150D01*
X002650Y001400D01*
X002400Y001150D01*
X001900Y001150D01*
X001650Y001400D01*
X001650Y001900D01*
X001900Y002150D01*
X002400Y002150D01*
X002650Y001900D01*
X002900Y002150D01*
X003400Y002150D01*
X003650Y001900D01*
X003900Y002150D01*
X004400Y002150D01*
X004650Y001900D01*
X004900Y002150D01*
X005400Y002150D01*
X005650Y001900D01*
X005900Y002150D01*
X006400Y002150D01*
X006650Y001900D01*
X006900Y002150D01*
X007400Y002150D01*
X007650Y001900D01*
X007900Y002150D01*
X008400Y002150D01*
X008650Y001900D01*
X008900Y002150D01*
X009400Y002150D01*
X009650Y001900D01*
X009900Y002150D01*
X010400Y002150D01*
X010650Y001900D01*
X003850Y004600D02*
X003600Y004350D01*
X002100Y004350D01*
X001850Y004600D01*
X001850Y005100D01*
X002100Y005350D01*
X003600Y005350D01*
X003850Y005100D01*
X003850Y004600D01*
X002800Y004150D02*
X002800Y004000D01*
X002500Y003850D01*
X002500Y004150D01*
X002800Y004000D01*
X002800Y003850D01*
X002100Y005350D02*
X001850Y005600D01*
X001850Y006100D01*
X002100Y006350D01*
X003600Y006350D01*
X003850Y006100D01*
X003850Y005600D01*
X003600Y005350D01*
X003600Y006350D02*
X003850Y006600D01*
X003850Y007100D01*
X003600Y007350D01*
X002100Y007350D01*
X001850Y007100D01*
X001850Y006600D01*
X002100Y006350D01*
D14*
X011464Y006715D02*
X011466Y006735D01*
X011471Y006755D01*
X011481Y006773D01*
X011493Y006790D01*
X011508Y006804D01*
X011526Y006814D01*
X011545Y006822D01*
X011565Y006826D01*
X011585Y006826D01*
X011605Y006822D01*
X011624Y006814D01*
X011642Y006804D01*
X011657Y006790D01*
X011669Y006773D01*
X011679Y006755D01*
X011684Y006735D01*
X011686Y006715D01*
X011684Y006695D01*
X011679Y006675D01*
X011669Y006657D01*
X011657Y006640D01*
X011642Y006626D01*
X011624Y006616D01*
X011605Y006608D01*
X011585Y006604D01*
X011565Y006604D01*
X011545Y006608D01*
X011526Y006616D01*
X011508Y006626D01*
X011493Y006640D01*
X011481Y006657D01*
X011471Y006675D01*
X011466Y006695D01*
X011464Y006715D01*
D15*
X001600Y006600D02*
X001600Y007100D01*
M02*
