G75*
G70*
%OFA0B0*%
%FSLAX24Y24*%
%IPPOS*%
%LPD*%
%AMOC8*
5,1,8,0,0,1.08239X$1,22.5*
%
%ADD10C,0.0740*%
%ADD11C,0.0376*%
%ADD12C,0.0160*%
%ADD13C,0.0100*%
%ADD14C,0.0300*%
%ADD15C,0.0120*%
D10*
X002150Y001650D03*
X003150Y001650D03*
X004150Y001650D03*
X005150Y001650D03*
X006150Y001650D03*
X007150Y001650D03*
X008150Y001650D03*
X009150Y001650D03*
X010150Y001650D03*
X016150Y001650D03*
X017150Y001650D03*
X018150Y001650D03*
X019150Y001650D03*
X020150Y001650D03*
X021150Y001650D03*
X022150Y001650D03*
X023150Y001650D03*
X024150Y001650D03*
X025550Y002650D03*
X025650Y003650D03*
X025550Y004650D03*
X025650Y005650D03*
X025550Y006650D03*
X025650Y007650D03*
X024150Y008650D03*
X023150Y008650D03*
X022150Y008650D03*
X021150Y008650D03*
X020150Y008650D03*
X019150Y008650D03*
X018150Y008650D03*
X017150Y008650D03*
X016150Y008650D03*
X010150Y008650D03*
X009150Y008650D03*
X008150Y008650D03*
X007150Y008650D03*
X006150Y008650D03*
X005150Y008650D03*
X004150Y008650D03*
X003150Y008650D03*
X002150Y008650D03*
X002350Y006850D03*
X003350Y006850D03*
X003250Y005850D03*
X002250Y005850D03*
X002350Y004850D03*
X003350Y004850D03*
D11*
X004650Y004640D03*
X004650Y004140D03*
X008950Y005330D03*
X013650Y005150D03*
X014150Y005150D03*
X018150Y005650D03*
X018650Y005650D03*
X011650Y001650D03*
X011150Y001650D03*
D12*
X008950Y005330D02*
X004870Y005330D01*
X003350Y006850D01*
X002150Y008050D01*
X002150Y008650D01*
D13*
X003450Y006330D02*
X003453Y006330D01*
X003518Y006357D01*
X004640Y005235D01*
X004775Y005100D01*
X008702Y005100D01*
X008758Y005043D01*
X008883Y004992D01*
X009017Y004992D01*
X009142Y005043D01*
X009237Y005138D01*
X009288Y005263D01*
X009288Y005397D01*
X009237Y005522D01*
X009198Y005560D01*
X009936Y005560D01*
X009980Y005516D01*
X010090Y005470D01*
X010210Y005470D01*
X010320Y005516D01*
X010374Y005570D01*
X014353Y005570D01*
X014823Y005100D01*
X014403Y005100D01*
X014103Y004800D01*
X010053Y004800D01*
X009753Y004500D01*
X009690Y004500D01*
X009580Y004454D01*
X009536Y004410D01*
X005613Y004410D01*
X005490Y004287D01*
X005490Y004287D01*
X003338Y002135D01*
X003338Y002135D01*
X003253Y002170D01*
X003047Y002170D01*
X002855Y002091D01*
X002709Y001945D01*
X002650Y001802D01*
X002591Y001945D01*
X002445Y002091D01*
X002360Y002126D01*
X002360Y004330D01*
X002453Y004330D01*
X002645Y004409D01*
X002791Y004555D01*
X002797Y004570D01*
X002820Y004525D01*
X002877Y004446D01*
X002946Y004377D01*
X003025Y004320D01*
X003112Y004275D01*
X003205Y004245D01*
X003300Y004230D01*
X003300Y004800D01*
X003400Y004800D01*
X003400Y004900D01*
X003970Y004900D01*
X003955Y004995D01*
X003925Y005088D01*
X003880Y005175D01*
X003823Y005254D01*
X003754Y005323D01*
X003675Y005380D01*
X003588Y005425D01*
X003567Y005431D01*
X003691Y005555D01*
X003770Y005747D01*
X003770Y005953D01*
X003691Y006145D01*
X003545Y006291D01*
X003450Y006330D01*
X003563Y006272D02*
X003603Y006272D01*
X003662Y006174D02*
X003701Y006174D01*
X003720Y006075D02*
X003800Y006075D01*
X003760Y005977D02*
X003898Y005977D01*
X003997Y005878D02*
X003770Y005878D01*
X003770Y005780D02*
X004095Y005780D01*
X004194Y005681D02*
X003743Y005681D01*
X003702Y005583D02*
X004292Y005583D01*
X004391Y005484D02*
X003619Y005484D01*
X003665Y005386D02*
X004489Y005386D01*
X004588Y005287D02*
X003790Y005287D01*
X003870Y005189D02*
X004686Y005189D01*
X003955Y004992D02*
X014295Y004992D01*
X014393Y005090D02*
X009188Y005090D01*
X009257Y005189D02*
X014735Y005189D01*
X014636Y005287D02*
X009288Y005287D01*
X009288Y005386D02*
X014538Y005386D01*
X014439Y005484D02*
X010243Y005484D01*
X010056Y005484D02*
X009252Y005484D01*
X008712Y005090D02*
X003924Y005090D01*
X003400Y004893D02*
X014196Y004893D01*
X015131Y005386D02*
X015996Y005386D01*
X015990Y005400D02*
X015990Y005470D01*
X015890Y005470D01*
X015780Y005516D01*
X015696Y005600D01*
X015650Y005710D01*
X015650Y005830D01*
X015696Y005940D01*
X015780Y006024D01*
X015890Y006070D01*
X015990Y006070D01*
X015990Y006110D01*
X015890Y006110D01*
X015780Y006156D01*
X015696Y006240D01*
X015650Y006350D01*
X015650Y006470D01*
X015696Y006580D01*
X015780Y006664D01*
X015890Y006710D01*
X015973Y006710D01*
X016313Y007050D01*
X015433Y007050D01*
X015404Y006980D01*
X015320Y006896D01*
X015210Y006850D01*
X015090Y006850D01*
X014985Y006894D01*
X015020Y006810D01*
X015020Y006690D01*
X014974Y006580D01*
X014890Y006496D01*
X014780Y006450D01*
X014683Y006450D01*
X014700Y006410D01*
X014700Y006290D01*
X014654Y006180D01*
X014570Y006096D01*
X014460Y006050D01*
X014340Y006050D01*
X014230Y006096D01*
X014146Y006180D01*
X014100Y006290D01*
X014100Y006410D01*
X014117Y006450D01*
X014063Y006450D01*
X014080Y006410D01*
X014080Y006290D01*
X014034Y006180D01*
X013950Y006096D01*
X013840Y006050D01*
X013720Y006050D01*
X013610Y006096D01*
X013526Y006180D01*
X013480Y006290D01*
X013480Y006410D01*
X013526Y006520D01*
X013570Y006564D01*
X013570Y007827D01*
X014200Y008457D01*
X014323Y008580D01*
X015630Y008580D01*
X015630Y008753D01*
X015709Y008945D01*
X015815Y009050D01*
X010485Y009050D01*
X010591Y008945D01*
X010670Y008753D01*
X010670Y008547D01*
X010635Y008462D01*
X010747Y008350D01*
X011907Y008350D01*
X012030Y008227D01*
X012030Y008227D01*
X013050Y007207D01*
X013050Y006564D01*
X013094Y006520D01*
X013140Y006410D01*
X013140Y006290D01*
X013094Y006180D01*
X013010Y006096D01*
X012900Y006050D01*
X012780Y006050D01*
X012670Y006096D01*
X012586Y006180D01*
X012540Y006290D01*
X012540Y006410D01*
X012557Y006450D01*
X012483Y006450D01*
X012500Y006410D01*
X012500Y006290D01*
X012454Y006180D01*
X012370Y006096D01*
X012260Y006050D01*
X012140Y006050D01*
X012030Y006096D01*
X011946Y006180D01*
X011900Y006290D01*
X011900Y006410D01*
X011917Y006450D01*
X011820Y006450D01*
X011710Y006496D01*
X011626Y006580D01*
X011580Y006690D01*
X011580Y006810D01*
X011607Y006876D01*
X011323Y007160D01*
X010425Y007160D01*
X010450Y007100D01*
X010450Y006980D01*
X010404Y006870D01*
X010320Y006786D01*
X010210Y006740D01*
X010090Y006740D01*
X010050Y006757D01*
X010050Y006683D01*
X010090Y006700D01*
X010210Y006700D01*
X010320Y006654D01*
X010404Y006570D01*
X010450Y006460D01*
X010450Y006340D01*
X010404Y006230D01*
X010320Y006146D01*
X010210Y006100D01*
X010090Y006100D01*
X010050Y006117D01*
X010050Y006053D01*
X010090Y006070D01*
X010210Y006070D01*
X010320Y006024D01*
X010354Y005990D01*
X014527Y005990D01*
X014650Y005867D01*
X015157Y005360D01*
X016007Y005360D01*
X015990Y005400D01*
X015856Y005484D02*
X015033Y005484D01*
X014934Y005583D02*
X015713Y005583D01*
X015662Y005681D02*
X014836Y005681D01*
X014737Y005780D02*
X015650Y005780D01*
X015670Y005878D02*
X014639Y005878D01*
X014540Y005977D02*
X015732Y005977D01*
X015762Y006174D02*
X014648Y006174D01*
X014692Y006272D02*
X015682Y006272D01*
X015650Y006371D02*
X014700Y006371D01*
X014826Y006469D02*
X015650Y006469D01*
X015691Y006568D02*
X014962Y006568D01*
X015010Y006666D02*
X015784Y006666D01*
X016028Y006765D02*
X015020Y006765D01*
X014998Y006863D02*
X015059Y006863D01*
X015241Y006863D02*
X016126Y006863D01*
X016225Y006962D02*
X015386Y006962D01*
X014100Y006371D02*
X014080Y006371D01*
X014072Y006272D02*
X014108Y006272D01*
X014152Y006174D02*
X014028Y006174D01*
X013900Y006075D02*
X014280Y006075D01*
X014520Y006075D02*
X015990Y006075D01*
X016969Y005583D02*
X025130Y005583D01*
X025130Y005547D02*
X025209Y005355D01*
X025355Y005209D01*
X025450Y005170D01*
X025447Y005170D01*
X025255Y005091D01*
X025165Y005000D01*
X020913Y005000D01*
X020950Y005090D01*
X025255Y005090D01*
X025405Y005189D02*
X020950Y005189D01*
X020950Y005210D02*
X020904Y005320D01*
X020820Y005404D01*
X020710Y005450D01*
X020590Y005450D01*
X020480Y005404D01*
X020436Y005360D01*
X016747Y005360D01*
X017437Y006050D01*
X021847Y006050D01*
X023962Y008165D01*
X024047Y008130D01*
X024253Y008130D01*
X024445Y008209D01*
X024591Y008355D01*
X024670Y008547D01*
X024670Y008753D01*
X024591Y008945D01*
X024485Y009050D01*
X026150Y009050D01*
X026209Y009044D01*
X026317Y008999D01*
X026399Y008917D01*
X026444Y008809D01*
X026450Y008750D01*
X026450Y001550D01*
X026444Y001491D01*
X026399Y001383D01*
X026317Y001301D01*
X026209Y001256D01*
X026150Y001250D01*
X024626Y001250D01*
X024680Y001325D01*
X024725Y001412D01*
X024755Y001505D01*
X024770Y001600D01*
X024200Y001600D01*
X024200Y001700D01*
X024100Y001700D01*
X024100Y002270D01*
X024005Y002255D01*
X023912Y002225D01*
X023825Y002180D01*
X023746Y002123D01*
X023677Y002054D01*
X023620Y001975D01*
X023597Y001930D01*
X023591Y001945D01*
X023445Y002091D01*
X023253Y002170D01*
X023047Y002170D01*
X022962Y002135D01*
X022962Y002135D01*
X020997Y004100D01*
X017017Y004100D01*
X016687Y004430D01*
X019453Y004430D01*
X019553Y004330D01*
X024623Y004330D01*
X025150Y003803D01*
X025130Y003753D01*
X025130Y003547D01*
X025209Y003355D01*
X025355Y003209D01*
X025450Y003170D01*
X025447Y003170D01*
X025255Y003091D01*
X025109Y002945D01*
X025030Y002753D01*
X025030Y002547D01*
X025109Y002355D01*
X025255Y002209D01*
X025447Y002130D01*
X025653Y002130D01*
X025845Y002209D01*
X025991Y002355D01*
X026070Y002547D01*
X026070Y002753D01*
X025991Y002945D01*
X025845Y003091D01*
X025750Y003130D01*
X025753Y003130D01*
X025945Y003209D01*
X026091Y003355D01*
X026170Y003547D01*
X026170Y003753D01*
X026091Y003945D01*
X025945Y004091D01*
X025753Y004170D01*
X025750Y004170D01*
X025845Y004209D01*
X025991Y004355D01*
X026070Y004547D01*
X026070Y004753D01*
X025991Y004945D01*
X025845Y005091D01*
X025750Y005130D01*
X025753Y005130D01*
X025945Y005209D01*
X026091Y005355D01*
X026170Y005547D01*
X026170Y005753D01*
X026091Y005945D01*
X025945Y006091D01*
X025875Y006120D01*
X025954Y006177D01*
X026023Y006246D01*
X026080Y006325D01*
X026125Y006412D01*
X026155Y006505D01*
X026170Y006600D01*
X025600Y006600D01*
X025600Y006700D01*
X026170Y006700D01*
X026155Y006795D01*
X026125Y006888D01*
X026080Y006975D01*
X026023Y007054D01*
X025963Y007114D01*
X025975Y007120D01*
X026054Y007177D01*
X026123Y007246D01*
X026180Y007325D01*
X026225Y007412D01*
X026255Y007505D01*
X026270Y007600D01*
X025700Y007600D01*
X025700Y007700D01*
X025600Y007700D01*
X025600Y008270D01*
X025505Y008255D01*
X025412Y008225D01*
X025325Y008180D01*
X025246Y008123D01*
X025177Y008054D01*
X025120Y007975D01*
X025075Y007888D01*
X025045Y007795D01*
X025030Y007700D01*
X025600Y007700D01*
X025600Y007600D01*
X025030Y007600D01*
X025045Y007505D01*
X025075Y007412D01*
X025120Y007325D01*
X025177Y007246D01*
X025237Y007186D01*
X025225Y007180D01*
X025146Y007123D01*
X025077Y007054D01*
X025020Y006975D01*
X024975Y006888D01*
X024945Y006795D01*
X024930Y006700D01*
X025500Y006700D01*
X025500Y006600D01*
X024930Y006600D01*
X024945Y006505D01*
X024975Y006412D01*
X025020Y006325D01*
X025077Y006246D01*
X025146Y006177D01*
X025225Y006120D01*
X025312Y006075D01*
X025333Y006069D01*
X025209Y005945D01*
X025130Y005753D01*
X025130Y005547D01*
X025156Y005484D02*
X016871Y005484D01*
X016772Y005386D02*
X020461Y005386D01*
X020839Y005386D02*
X025197Y005386D01*
X025278Y005287D02*
X020918Y005287D01*
X020950Y005210D02*
X020950Y005090D01*
X019483Y004401D02*
X016716Y004401D01*
X016815Y004302D02*
X024651Y004302D01*
X024750Y004204D02*
X016913Y004204D01*
X017012Y004105D02*
X024848Y004105D01*
X024947Y004007D02*
X021090Y004007D01*
X021189Y003908D02*
X025045Y003908D01*
X025144Y003810D02*
X021287Y003810D01*
X021386Y003711D02*
X025130Y003711D01*
X025130Y003613D02*
X021484Y003613D01*
X021583Y003514D02*
X025143Y003514D01*
X025184Y003416D02*
X021681Y003416D01*
X021780Y003317D02*
X025248Y003317D01*
X025346Y003219D02*
X021878Y003219D01*
X021977Y003120D02*
X025326Y003120D01*
X025186Y003022D02*
X022075Y003022D01*
X022174Y002923D02*
X025100Y002923D01*
X025059Y002825D02*
X022272Y002825D01*
X022371Y002726D02*
X025030Y002726D01*
X025030Y002628D02*
X022469Y002628D01*
X022568Y002529D02*
X025037Y002529D01*
X025078Y002431D02*
X022666Y002431D01*
X022765Y002332D02*
X025133Y002332D01*
X025231Y002234D02*
X024361Y002234D01*
X024388Y002225D02*
X024295Y002255D01*
X024200Y002270D01*
X024200Y001700D01*
X024770Y001700D01*
X024755Y001795D01*
X024725Y001888D01*
X024680Y001975D01*
X024623Y002054D01*
X024554Y002123D01*
X024475Y002180D01*
X024388Y002225D01*
X024537Y002135D02*
X025434Y002135D01*
X025666Y002135D02*
X026450Y002135D01*
X026450Y002037D02*
X024636Y002037D01*
X024699Y001938D02*
X026450Y001938D01*
X026450Y001840D02*
X024740Y001840D01*
X024763Y001741D02*
X026450Y001741D01*
X026450Y001643D02*
X024200Y001643D01*
X024200Y001741D02*
X024100Y001741D01*
X024100Y001840D02*
X024200Y001840D01*
X024200Y001938D02*
X024100Y001938D01*
X024100Y002037D02*
X024200Y002037D01*
X024200Y002135D02*
X024100Y002135D01*
X024100Y002234D02*
X024200Y002234D01*
X023939Y002234D02*
X022863Y002234D01*
X023338Y002135D02*
X023763Y002135D01*
X023664Y002037D02*
X023499Y002037D01*
X023594Y001938D02*
X023601Y001938D01*
X024761Y001544D02*
X026449Y001544D01*
X026425Y001446D02*
X024735Y001446D01*
X024691Y001347D02*
X026363Y001347D01*
X026450Y002234D02*
X025869Y002234D01*
X025967Y002332D02*
X026450Y002332D01*
X026450Y002431D02*
X026022Y002431D01*
X026063Y002529D02*
X026450Y002529D01*
X026450Y002628D02*
X026070Y002628D01*
X026070Y002726D02*
X026450Y002726D01*
X026450Y002825D02*
X026041Y002825D01*
X026000Y002923D02*
X026450Y002923D01*
X026450Y003022D02*
X025914Y003022D01*
X025774Y003120D02*
X026450Y003120D01*
X026450Y003219D02*
X025954Y003219D01*
X026052Y003317D02*
X026450Y003317D01*
X026450Y003416D02*
X026116Y003416D01*
X026157Y003514D02*
X026450Y003514D01*
X026450Y003613D02*
X026170Y003613D01*
X026170Y003711D02*
X026450Y003711D01*
X026450Y003810D02*
X026147Y003810D01*
X026106Y003908D02*
X026450Y003908D01*
X026450Y004007D02*
X026029Y004007D01*
X025910Y004105D02*
X026450Y004105D01*
X026450Y004204D02*
X025831Y004204D01*
X025937Y004302D02*
X026450Y004302D01*
X026450Y004401D02*
X026010Y004401D01*
X026050Y004499D02*
X026450Y004499D01*
X026450Y004598D02*
X026070Y004598D01*
X026070Y004696D02*
X026450Y004696D01*
X026450Y004795D02*
X026053Y004795D01*
X026012Y004893D02*
X026450Y004893D01*
X026450Y004992D02*
X025944Y004992D01*
X025845Y005090D02*
X026450Y005090D01*
X026450Y005189D02*
X025895Y005189D01*
X026022Y005287D02*
X026450Y005287D01*
X026450Y005386D02*
X026103Y005386D01*
X026144Y005484D02*
X026450Y005484D01*
X026450Y005583D02*
X026170Y005583D01*
X026170Y005681D02*
X026450Y005681D01*
X026450Y005780D02*
X026159Y005780D01*
X026118Y005878D02*
X026450Y005878D01*
X026450Y005977D02*
X026059Y005977D01*
X025960Y006075D02*
X026450Y006075D01*
X026450Y006174D02*
X025949Y006174D01*
X025875Y006120D02*
X025875Y006120D01*
X026042Y006272D02*
X026450Y006272D01*
X026450Y006371D02*
X026103Y006371D01*
X026143Y006469D02*
X026450Y006469D01*
X026450Y006568D02*
X026165Y006568D01*
X026450Y006666D02*
X025600Y006666D01*
X025500Y006666D02*
X022463Y006666D01*
X022364Y006568D02*
X024935Y006568D01*
X024957Y006469D02*
X022266Y006469D01*
X022167Y006371D02*
X024997Y006371D01*
X025058Y006272D02*
X022069Y006272D01*
X021970Y006174D02*
X025151Y006174D01*
X025313Y006075D02*
X021872Y006075D01*
X022561Y006765D02*
X024940Y006765D01*
X024967Y006863D02*
X022660Y006863D01*
X022758Y006962D02*
X025013Y006962D01*
X025083Y007060D02*
X022857Y007060D01*
X022955Y007159D02*
X025195Y007159D01*
X025169Y007257D02*
X023054Y007257D01*
X023152Y007356D02*
X025104Y007356D01*
X025062Y007454D02*
X023251Y007454D01*
X023349Y007553D02*
X025038Y007553D01*
X025038Y007750D02*
X023546Y007750D01*
X023448Y007651D02*
X025600Y007651D01*
X025600Y007750D02*
X025700Y007750D01*
X025700Y007700D02*
X025700Y008270D01*
X025795Y008255D01*
X025888Y008225D01*
X025975Y008180D01*
X026054Y008123D01*
X026123Y008054D01*
X026180Y007975D01*
X026225Y007888D01*
X026255Y007795D01*
X026270Y007700D01*
X025700Y007700D01*
X025700Y007651D02*
X026450Y007651D01*
X026450Y007553D02*
X026262Y007553D01*
X026238Y007454D02*
X026450Y007454D01*
X026450Y007356D02*
X026196Y007356D01*
X026131Y007257D02*
X026450Y007257D01*
X026450Y007159D02*
X026028Y007159D01*
X026017Y007060D02*
X026450Y007060D01*
X026450Y006962D02*
X026087Y006962D01*
X026133Y006863D02*
X026450Y006863D01*
X026450Y006765D02*
X026160Y006765D01*
X025241Y005977D02*
X017363Y005977D01*
X017265Y005878D02*
X025182Y005878D01*
X025141Y005780D02*
X017166Y005780D01*
X017068Y005681D02*
X025130Y005681D01*
X026262Y007750D02*
X026450Y007750D01*
X026450Y007848D02*
X026238Y007848D01*
X026195Y007947D02*
X026450Y007947D01*
X026450Y008045D02*
X026129Y008045D01*
X026026Y008144D02*
X026450Y008144D01*
X026450Y008242D02*
X025834Y008242D01*
X025700Y008242D02*
X025600Y008242D01*
X025600Y008144D02*
X025700Y008144D01*
X025700Y008045D02*
X025600Y008045D01*
X025600Y007947D02*
X025700Y007947D01*
X025700Y007848D02*
X025600Y007848D01*
X025171Y008045D02*
X023842Y008045D01*
X023744Y007947D02*
X025105Y007947D01*
X025062Y007848D02*
X023645Y007848D01*
X023941Y008144D02*
X024014Y008144D01*
X024286Y008144D02*
X025274Y008144D01*
X025466Y008242D02*
X024477Y008242D01*
X024576Y008341D02*
X026450Y008341D01*
X026450Y008439D02*
X024625Y008439D01*
X024666Y008538D02*
X026450Y008538D01*
X026450Y008636D02*
X024670Y008636D01*
X024670Y008735D02*
X026450Y008735D01*
X026434Y008833D02*
X024637Y008833D01*
X024596Y008932D02*
X026385Y008932D01*
X026243Y009030D02*
X024505Y009030D01*
X015795Y009030D02*
X010505Y009030D01*
X010596Y008932D02*
X015704Y008932D01*
X015663Y008833D02*
X010637Y008833D01*
X010670Y008735D02*
X015630Y008735D01*
X015630Y008636D02*
X010670Y008636D01*
X010666Y008538D02*
X014281Y008538D01*
X014182Y008439D02*
X010658Y008439D01*
X011916Y008341D02*
X014084Y008341D01*
X013985Y008242D02*
X012015Y008242D01*
X012113Y008144D02*
X013887Y008144D01*
X013788Y008045D02*
X012212Y008045D01*
X012310Y007947D02*
X013690Y007947D01*
X013591Y007848D02*
X012409Y007848D01*
X012507Y007750D02*
X013570Y007750D01*
X013570Y007651D02*
X012606Y007651D01*
X012704Y007553D02*
X013570Y007553D01*
X013570Y007454D02*
X012803Y007454D01*
X012901Y007356D02*
X013570Y007356D01*
X013570Y007257D02*
X013000Y007257D01*
X013050Y007159D02*
X013570Y007159D01*
X013570Y007060D02*
X013050Y007060D01*
X013050Y006962D02*
X013570Y006962D01*
X013570Y006863D02*
X013050Y006863D01*
X013050Y006765D02*
X013570Y006765D01*
X013570Y006666D02*
X013050Y006666D01*
X013050Y006568D02*
X013570Y006568D01*
X013505Y006469D02*
X013115Y006469D01*
X013140Y006371D02*
X013480Y006371D01*
X013488Y006272D02*
X013132Y006272D01*
X013088Y006174D02*
X013532Y006174D01*
X013660Y006075D02*
X012960Y006075D01*
X012720Y006075D02*
X012320Y006075D01*
X012448Y006174D02*
X012592Y006174D01*
X012548Y006272D02*
X012492Y006272D01*
X012500Y006371D02*
X012540Y006371D01*
X011952Y006174D02*
X010348Y006174D01*
X010422Y006272D02*
X011908Y006272D01*
X011900Y006371D02*
X010450Y006371D01*
X010446Y006469D02*
X011774Y006469D01*
X011638Y006568D02*
X010405Y006568D01*
X010292Y006666D02*
X011590Y006666D01*
X011580Y006765D02*
X010269Y006765D01*
X010397Y006863D02*
X011602Y006863D01*
X011521Y006962D02*
X010442Y006962D01*
X010450Y007060D02*
X011423Y007060D01*
X011324Y007159D02*
X010426Y007159D01*
X010050Y006075D02*
X012080Y006075D01*
X010048Y004795D02*
X003969Y004795D01*
X003970Y004800D02*
X003400Y004800D01*
X003400Y004230D01*
X003495Y004245D01*
X003588Y004275D01*
X003675Y004320D01*
X003754Y004377D01*
X003823Y004446D01*
X003880Y004525D01*
X003925Y004612D01*
X003955Y004705D01*
X003970Y004800D01*
X003952Y004696D02*
X009949Y004696D01*
X009851Y004598D02*
X003917Y004598D01*
X003861Y004499D02*
X009688Y004499D01*
X013084Y004100D02*
X013846Y004100D01*
X013846Y004100D01*
X013800Y003990D01*
X013800Y003870D01*
X013808Y003850D01*
X013710Y003850D01*
X013600Y003804D01*
X013516Y003720D01*
X013470Y003610D01*
X013470Y003490D01*
X013516Y003380D01*
X013560Y003336D01*
X013560Y002523D01*
X014530Y001553D01*
X014653Y001430D01*
X015678Y001430D01*
X015709Y001355D01*
X015815Y001250D01*
X010485Y001250D01*
X010591Y001355D01*
X010670Y001547D01*
X010670Y001753D01*
X010635Y001838D01*
X010677Y001880D01*
X011787Y001880D01*
X011910Y002003D01*
X013040Y003133D01*
X013040Y003716D01*
X013084Y003760D01*
X013130Y003870D01*
X013130Y003990D01*
X013084Y004100D01*
X013084Y004100D01*
X013123Y004007D02*
X013807Y004007D01*
X013800Y003908D02*
X013130Y003908D01*
X013105Y003810D02*
X013613Y003810D01*
X013512Y003711D02*
X013040Y003711D01*
X013040Y003613D02*
X013471Y003613D01*
X013470Y003514D02*
X013040Y003514D01*
X013040Y003416D02*
X013501Y003416D01*
X013560Y003317D02*
X013040Y003317D01*
X013040Y003219D02*
X013560Y003219D01*
X013560Y003120D02*
X013027Y003120D01*
X012928Y003022D02*
X013560Y003022D01*
X013560Y002923D02*
X012830Y002923D01*
X012731Y002825D02*
X013560Y002825D01*
X013560Y002726D02*
X012633Y002726D01*
X012534Y002628D02*
X013560Y002628D01*
X013560Y002529D02*
X012436Y002529D01*
X012337Y002431D02*
X013653Y002431D01*
X013751Y002332D02*
X012239Y002332D01*
X012140Y002234D02*
X013850Y002234D01*
X013948Y002135D02*
X012042Y002135D01*
X011943Y002037D02*
X014047Y002037D01*
X014145Y001938D02*
X011845Y001938D01*
X010670Y001741D02*
X014342Y001741D01*
X014244Y001840D02*
X010636Y001840D01*
X010670Y001643D02*
X014441Y001643D01*
X014539Y001544D02*
X010669Y001544D01*
X010628Y001446D02*
X014638Y001446D01*
X015718Y001347D02*
X010582Y001347D01*
X004717Y003514D02*
X002360Y003514D01*
X002360Y003416D02*
X004619Y003416D01*
X004520Y003317D02*
X002360Y003317D01*
X002360Y003219D02*
X004422Y003219D01*
X004323Y003120D02*
X002360Y003120D01*
X002360Y003022D02*
X004225Y003022D01*
X004126Y002923D02*
X002360Y002923D01*
X002360Y002825D02*
X004028Y002825D01*
X003929Y002726D02*
X002360Y002726D01*
X002360Y002628D02*
X003831Y002628D01*
X003732Y002529D02*
X002360Y002529D01*
X002360Y002431D02*
X003634Y002431D01*
X003535Y002332D02*
X002360Y002332D01*
X002360Y002234D02*
X003437Y002234D01*
X002962Y002135D02*
X002360Y002135D01*
X002499Y002037D02*
X002801Y002037D01*
X002706Y001938D02*
X002594Y001938D01*
X002634Y001840D02*
X002666Y001840D01*
X002360Y003613D02*
X004816Y003613D01*
X004914Y003711D02*
X002360Y003711D01*
X002360Y003810D02*
X005013Y003810D01*
X005111Y003908D02*
X002360Y003908D01*
X002360Y004007D02*
X005210Y004007D01*
X005308Y004105D02*
X002360Y004105D01*
X002360Y004204D02*
X005407Y004204D01*
X005505Y004302D02*
X003640Y004302D01*
X003777Y004401D02*
X005604Y004401D01*
X003400Y004401D02*
X003300Y004401D01*
X003300Y004499D02*
X003400Y004499D01*
X003400Y004598D02*
X003300Y004598D01*
X003300Y004696D02*
X003400Y004696D01*
X003400Y004795D02*
X003300Y004795D01*
X002839Y004499D02*
X002734Y004499D01*
X002624Y004401D02*
X002923Y004401D01*
X003060Y004302D02*
X002360Y004302D01*
X003300Y004302D02*
X003400Y004302D01*
D14*
X004650Y006150D03*
X009750Y006090D03*
X010150Y006400D03*
X009750Y006720D03*
X010150Y007040D03*
X011880Y006750D03*
X012520Y006750D03*
X012200Y006350D03*
X011650Y006150D03*
X012840Y006350D03*
X013780Y006350D03*
X014400Y006350D03*
X014100Y006750D03*
X014720Y006750D03*
X015150Y007150D03*
X015950Y006410D03*
X016290Y006090D03*
X015950Y005770D03*
X016290Y005460D03*
X016130Y004350D03*
X014710Y004200D03*
X014100Y003930D03*
X014400Y003550D03*
X013770Y003550D03*
X012830Y003930D03*
X012200Y003930D03*
X011890Y003550D03*
X012520Y003550D03*
X010150Y003260D03*
X009750Y003560D03*
X010150Y003880D03*
X009750Y004200D03*
X010150Y005770D03*
X016150Y003650D03*
X015650Y003150D03*
X015120Y002850D03*
X020650Y005150D03*
X023150Y005900D03*
X011150Y008650D03*
D15*
X010660Y008140D02*
X010150Y008650D01*
X009920Y007880D02*
X009150Y008650D01*
X008150Y008650D02*
X009170Y007630D01*
X011540Y007630D01*
X012200Y006970D01*
X012200Y006350D01*
X012840Y006350D02*
X012840Y007120D01*
X011820Y008140D01*
X010660Y008140D01*
X009920Y007880D02*
X011690Y007880D01*
X012520Y007050D01*
X012520Y006750D01*
X011880Y006750D02*
X011880Y006900D01*
X011410Y007370D01*
X008430Y007370D01*
X007150Y008650D01*
X006150Y008650D02*
X007760Y007040D01*
X010150Y007040D01*
X009750Y006720D02*
X007080Y006720D01*
X005150Y008650D01*
X004150Y008650D02*
X006400Y006400D01*
X010150Y006400D01*
X009750Y006090D02*
X005710Y006090D01*
X003150Y008650D01*
X004650Y006150D02*
X005030Y005770D01*
X010150Y005770D01*
X010160Y005780D01*
X014440Y005780D01*
X015070Y005150D01*
X020650Y005150D01*
X019860Y004790D02*
X019760Y004890D01*
X014490Y004890D01*
X014190Y004590D01*
X010140Y004590D01*
X009750Y004200D01*
X005700Y004200D01*
X003150Y001650D01*
X004150Y001650D02*
X006380Y003880D01*
X010150Y003880D01*
X010150Y003940D01*
X010520Y004310D01*
X014310Y004310D01*
X014650Y004650D01*
X014660Y004640D01*
X019540Y004640D01*
X019640Y004540D01*
X024710Y004540D01*
X025600Y003650D01*
X025650Y003650D01*
X025550Y004650D02*
X025410Y004790D01*
X019860Y004790D01*
X020910Y003890D02*
X023150Y001650D01*
X022150Y001650D02*
X020140Y003660D01*
X016760Y003660D01*
X016400Y004020D01*
X015960Y004020D01*
X015780Y004200D01*
X014710Y004200D01*
X014100Y003930D02*
X014100Y002720D01*
X014550Y002270D01*
X016530Y002270D01*
X017150Y001650D01*
X016150Y001650D02*
X016140Y001640D01*
X014740Y001640D01*
X013770Y002610D01*
X013770Y003550D01*
X014400Y003550D02*
X014400Y002880D01*
X014750Y002530D01*
X017270Y002530D01*
X018150Y001650D01*
X019150Y001650D02*
X017950Y002850D01*
X015120Y002850D01*
X015650Y003150D02*
X018650Y003150D01*
X020150Y001650D01*
X021150Y001650D02*
X019400Y003400D01*
X016400Y003400D01*
X016150Y003650D01*
X016470Y004350D02*
X016930Y003890D01*
X020910Y003890D01*
X016470Y004350D02*
X016130Y004350D01*
X016290Y005460D02*
X016550Y005460D01*
X017350Y006260D01*
X021760Y006260D01*
X024150Y008650D01*
X023150Y008650D02*
X021010Y006510D01*
X017010Y006510D01*
X016650Y006150D01*
X016650Y005940D01*
X016480Y005770D01*
X015950Y005770D01*
X016290Y006090D02*
X016300Y006100D01*
X016300Y006390D01*
X016670Y006760D01*
X020260Y006760D01*
X022150Y008650D01*
X021150Y008650D02*
X019510Y007010D01*
X016570Y007010D01*
X015970Y006410D01*
X015950Y006410D01*
X014720Y006750D02*
X014720Y007350D01*
X014890Y007520D01*
X018020Y007520D01*
X019150Y008650D01*
X018150Y008650D02*
X017290Y007790D01*
X014640Y007790D01*
X014400Y007550D01*
X014400Y006350D01*
X013780Y006350D02*
X013780Y007740D01*
X014410Y008370D01*
X015870Y008370D01*
X016150Y008650D01*
X016590Y008090D02*
X017150Y008650D01*
X016590Y008090D02*
X014540Y008090D01*
X014100Y007650D01*
X014100Y006750D01*
X015150Y007150D02*
X015260Y007260D01*
X018760Y007260D01*
X020150Y008650D01*
X012830Y003930D02*
X012830Y003220D01*
X011700Y002090D01*
X010590Y002090D01*
X010150Y001650D01*
X009900Y002400D02*
X009150Y001650D01*
X009150Y002650D02*
X008150Y001650D01*
X007150Y001650D02*
X008420Y002920D01*
X011260Y002920D01*
X011890Y003550D01*
X012200Y003370D02*
X011480Y002650D01*
X009150Y002650D01*
X009900Y002400D02*
X011610Y002400D01*
X012520Y003310D01*
X012520Y003550D01*
X012200Y003370D02*
X012200Y003930D01*
X010150Y003260D02*
X007760Y003260D01*
X006150Y001650D01*
X005150Y001650D02*
X007060Y003560D01*
X009750Y003560D01*
X002350Y004850D02*
X002150Y004650D01*
X002150Y001650D01*
M02*
